<svg version="1.0" xmlns="http://www.w3.org/2000/svg" width="1173.333" height="1173.333" viewBox="0 0 880 880"><path d="M533.5 179c-1.6.6-3.9.7-4.9.4-1.5-.5-1.8-.2-1.3 1.5.3 1.2.1 1.9-.4 1.5-.5-.3-.9-1.2-.9-2 0-2.7-6.3-1.7-9.5 1.6-1.5 1.6-3.2 2.7-3.8 2.3-.6-.3-.5.2.1 1.3.8 1.4.5 2.6-1.4 5.3-2.6 3.8-6.2 5.5-4.3 2 .5-1.1 1.5-1.6 2.1-1.3.7.4.8.3.4-.4-.4-.6-1.3-.9-2.1-.6-1.2.5-1.4 0-.8-2.6.4-2.4.3-3.1-.5-2.6s-1.2 0-1.2-1.3c0-1.1-.4-2.2-.9-2.6-1.4-.8-9.3 2.2-10.3 4-.5.8-1.4 1.3-2 .9-.6-.4-.6.2.1 1.5.7 1.1 1 2.1.9 2.2-2.4.6-3.7.5-3.3-.2.8-1.2-2.8.2-3.7 1.5-.5.6-.8.2-.8-1s-.7-2.7-1.5-3.4c-2-1.6-9.1 1.7-8.9 4.2.1 1-.3 1.5-.9 1.1-.7-.4-.8 0-.3 1.2.6 1.6.4 1.6-1 .4-1.6-1.3-1.6-1.2-.4 1.1 1.3 2.4 1.2 2.4-.5 1s-1.7-1.4-.7.7c1.7 3.1 1.5 4-.3 1.7-1.3-1.6-1.4-1.6-.9-.2.3 1 .1 1.8-.5 1.8s-.8.7-.4 1.7.2 1.4-.4 1c-.7-.5-.9.1-.5 1.5.3 1.3.1 1.9-.5 1.5-.7-.5-.9.1-.5 1.5.3 1.3.1 1.9-.5 1.5-.7-.5-.9.1-.5 1.5.4 1.5.2 1.9-.7 1.3-1-.5-1.1-.2-.6 1.4.3 1.1.3 2.1-.2 2.1-.7 0-.9 3.1-.4 7.7 0 .7.6 1.3 1.2 1.3.8 0 .7-.6-.2-1.8-1.1-1.4-1.1-1.5.1-.5 2 1.9 2.1 4.3.2 3.6-1.3-.4-1.4-.3-.3.5 2.1 1.5 7.3.6 9-1.6 1.2-1.6 2.6-2.1 6.1-2 3.1.1 4.4-.2 4.2-1.1-.1-.7.1-1.1.5-.8.5.2 4.2 0 8.3-.5 4.1-.5 8.9-1.1 10.5-1.2 2.1-.2 3.7-1.2 5.3-3.7 2.4-3.5 6.9-5.1 5.7-2-.3.8-.3 1.2.1.9.4-.4 1.6-.1 2.8.7 2.4 1.8 11.1 2.1 10 .4-.4-.7.2-.9 1.5-.7 1.4.2 2.9-.7 4.5-2.6l2.3-3 3.3 2.4c1.9 1.3 4.4 2.3 5.7 2.2 1.3-.1 2.3.3 2.3.8 0 1.6 12.3 1.2 17.1-.5 6.3-2.2 11.5-6.1 13.3-10 1.8-3.8 2.1-6.9.5-6-2.1 1.4-.1-5.5 2.3-7.4 1.6-1.3 2.3-3 2.3-5.4 0-1.9-.3-3.3-.6-3.1-.4.2-1.2-.3-1.9-1.1-.8-.9-3-1.5-5.9-1.5-5.3 0-12.4 1.7-11.7 2.9.3.4-.8.7-2.4.6-2.2-.1-2.7.1-2 1 .7.8.3 1.8-1.3 3.1-2.1 1.7-2.1 1.7-.5 0 1.5-1.7 1.5-2-1-4.1-3.1-2.6-6.1-2.3-4 .4 1.2 1.4 1.1 1.5-.5.2-1.3-1.1-1.5-1.7-.6-2.8 1-1.1.8-1.2-.6-.7-1 .4-1.6.3-1.3-.2.8-1.2-10.9-1.5-14.7-.4zm-12.5 1.7c-.8.3-2.8 1.7-4.5 3.2l-3 2.6 2.9-3.3c1.7-1.7 3.7-3.2 4.5-3.1 1.4 0 1.4.1.1.6zm59.1 1c1.3 1.7 1.3 1.7-.6.3-1.1-.8-2.2-1.6-2.4-1.7-.2-.2 0-.3.6-.3s1.7.8 2.4 1.7zm-83.1 2.6c0 .2-1 1.2-2.2 2.3l-2.3 1.9 1.9-2.3c1.8-2.1 2.6-2.7 2.6-1.9zm27.7 3.9c-.3.7-.5.2-.5-1.2s.2-1.9.5-1.3c.2.7.2 1.9 0 2.5zm56.3-2.8c0 .2-.8 1-1.7 1.7-1.6 1.3-1.7 1.2-.4-.4 1.3-1.6 2.1-2.1 2.1-1.3zm-29 5.9c0 .2-1 1.2-2.2 2.3l-2.3 1.9 1.9-2.3c1.8-2.1 2.6-2.7 2.6-1.9zm-61 1.3c0 .8-1.9 1.3-2.4.6-.3-.5.1-.9.9-.9s1.5.2 1.5.3zm85.6 1.6c.3.4-.1.5-1 .4-.8-.1-1.8-.5-2.2-.8-.3-.4.1-.5 1-.4.8.1 1.8.5 2.2.8zm-68.6 2.4c0 .8-1.9 1.3-2.4.6-.3-.5.1-.9.9-.9s1.5.2 1.5.3zm49.5 2.4c1 1.1 1.5 2.3 1.2 2.7-.4.3-.7.1-.7-.5 0-.7-.3-1.1-.7-1.1-.5.1-1.5.1-2.3 0-1.3-.1-1.3-.2 0-1.1 1.7-1.1.1-1.3-2.5-.4-.9.4-1.2 1-.7 1.3.5.3-.2 1.5-1.7 2.6-2 1.5-2.3 1.5-1.2.2.7-.9 1-1.7.5-1.7-1.4-.1 3.7-4 5.1-4 .6 0 2 .9 3 2zm-17.5 0c0 .5-.2 1-.4 1-.3 0-.8-.5-1.1-1-.3-.6-.1-1 .4-1 .6 0 1.1.4 1.1 1zm7.3 6.9c-.2.3-1.8-1-3.6-2.9l-3.2-3.4 3.6 3c2 1.6 3.4 3.1 3.2 3.3zm-63.6-1.7c-.3.8-.6.5-.6-.6-.1-1.1.2-1.7.5-1.3.3.3.4 1.2.1 1.9zm51.4-.5c1.3 1.6 1.2 1.7-.3.4-1-.7-1.8-1.5-1.8-1.7 0-.8.8-.3 2.1 1.3zm39.9-1.4c0 .2-1.2 1.4-2.7 2.8l-2.8 2.4 2.4-2.8c2.3-2.5 3.1-3.2 3.1-2.4zm-30.4 9.4c-.7.7-2.1.4-2.1-.5 0-.5-1.3-2.1-3-3.6-2.4-2.3-2.2-2.2 1.3.4 2.4 1.8 4.1 3.4 3.8 3.7zm-35.3-4.2c-.3.9-.8 1.4-1 1.1-.3-.3-.2-.9.2-1.5.9-1.6 1.5-1.3.8.4zm59.2.5c-.3.5-1.2 1-1.8 1-.7 0-.6-.4.3-1 1.9-1.2 2.3-1.2 1.5 0zm-50 5.9c-.6.5-2.5-1-2.5-2 0-.5.6-.4 1.4.3.8.7 1.2 1.5 1.1 1.7zm12.6-.6c-1 .9-1.1.8-.5-.6.3-1 .9-1.5 1.2-1.2.3.3 0 1.1-.7 1.8zm-26.7 1.9c2.1-1.7 2.1-1.7.3.4-.9 1.1-2.4 2.1-3.2 2.1-.8 0-1.3-.3-1-.5.3-.3-.1-1.2-.7-2.1-.9-1.2-.7-1.2.7.1 1.8 1.7 2 1.7 3.9 0zm-25.8 5.4c.1.9 0 1.3-.4 1-.3-.4-.7-1.4-.8-2.2-.1-.9 0-1.3.4-1 .3.4.7 1.4.8 2.2zm-6.3 4.5c-.8.8-1.3.7-1.8-.2-.5-.8-.4-1 .3-.5.7.4 1.2.2 1.2-.5s.3-.9.7-.6c.4.4.2 1.2-.4 1.8zm125.9-46.5c-.6.3-.9 1.1-.6 1.6.4.7.2.8-.4.4-.6-.4-2-.2-3.1.3-2.8 1.5-2.7 10.1.1 9.6 1-.2 1.6 0 1.3.6-.4.5-1.1.6-1.7.3-.8-.5-.9-.1-.4 1.1.6 1.6.4 1.6-1 .4-1.6-1.3-1.6-1.2-.4 1.1 1.2 2.2 1.1 2.4-.2 1.3-.8-.7-1.7-1-2.1-.7-.9.9.4 3.5 1.5 2.8.5-.3.2.8-.7 2.6-1.4 2.7-1.8 3-3.2 1.8-1.5-1.2-1.5-1.1-.3 1.2 1.3 2.4 1.2 2.4-.5 1s-1.8-1.4-.5 1c1.2 2.2 1.1 2.3-.2 1.3-1.2-1.1-1.4-.9-1.3.7.1 1.1.5 2.3 1 2.7.4.5.5.2 0-.6-.5-.9-.4-1.2.2-.8.6.4.9 1.7.8 3.1-.3 1.9.1 2.3 1.9 1.9 1.7-.4 1.9-.3.6.7-1.2.9.2 1 6 .7 10.1-.5 16.6-3.5 22.5-10.1 6.9-7.7 7.4-8.4 6.8-8.9-.3-.3.4-.3 1.6 0 1.1.3 2.3 1.4 2.7 2.5.6 1.8.7 1.9 2.5.2 1-.9 1.9-1.3 1.9-.9 0 .5 1.5-.4 3.3-2.1l3.2-2.9-3.4 3.7c-1.9 2.1-3.9 3.4-4.4 3.1-.6-.4-.8 0-.4 1.1.4.9.3 1.4-.2 1.1-1.4-.8-2.1.8-3 6.5-.7 4.4-.6 4.8.7 3.7 1.3-1 1.4-.9.4.9-1.4 2.6 1.1 6.9 3.5 6 .8-.3 1.1-.1.8.4-2.3 3.7 18.1 3.3 20.8-.4.5-.6.6-.2.2 1-.6 2.5 3.5 7.1 7.2 8 3.4.9 11.5-.4 12.5-1.9.5-.8.8-.7.8.5 0 1 .4 1.8 1 1.8.5 0 .7-.6.4-1.3-.2-.7.6-2.2 1.8-3.3l2.3-1.9-1.9 2.2c-1.6 2-1.7 2.5-.5 4 .9 1.1 1 1.4.2.9-.8-.4-1.3-.2-1.3.4 0 .6-.6.8-1.2.4-1-.5-1-.4-.1.6 1.7 1.9 7.5 2 9.5.3.9-.8 2.4-1.6 3.2-1.7.9-.1 3.8-2.2 6.4-4.7 6.3-6 7.9-7.2 8.6-6.1.3.5-.6 2-2.1 3.3-1.4 1.3-2.3 1.8-1.8 1 .5-.9.4-1.2-.4-1-.7.3-1.2.9-1.2 1.4 0 1.4-6.1 7.5-6.9 7-.4-.3-1 .8-1.2 2.4-.3 1.7 0 2.9.6 2.8.5-.1 1 .5 1.1 1.3 0 1.1 1 1.5 3.9 1.3 2.9-.1 4.7-1 7.2-3.4 1.9-1.8 3.4-2.9 3.4-2.5 0 .5.8.2 1.8-.5.9-.7.4.1-1.2 1.9-1.6 1.7-3.3 2.9-3.8 2.6-.4-.3-.8.6-.8 2s.5 2.6 1.1 2.6c.5 0 .7-.6.3-1.3-.4-.6-.3-.8.1-.4 1.6 1.4 1.4 3.6-.3 3-4.6-1.4 5.2 4.1 11.3 6.4 3.9 1.5 7.5 3.1 8.2 3.6.7.5 1.7.6 2.3.2.6-.4.9-.1.8.6-.2.7 3.6 3.3 8.3 5.8 4.7 2.5 9.4 5.3 10.4 6.1 1.1.8 1.6 1 1.3.5-.4-.6.2-1.1 1.2-1.1 1.4 0 1.6.4.9 1.3-1.4 1.6 15.9 10.4 19 9.6 1.1-.3 2.1-1 2.1-1.5s-.6-.6-1.2-.2c-.7.4-.9.3-.5-.1 1.4-1.6 3.6-1.4 3 .3-.4 1.3-.3 1.4.5.3 1-1.4.5-4.8-.9-5.7-.5-.3-.6.3-.3 1.3.4 1.1-.1.9-1.2-.7-2.8-3.7-2.7-5.2.2-3.3 2.2 1.4 2.4 1.4 1.8-.1-.5-1.3-.2-1.4 2.3-.5 2 .6 3.8.6 5.5 0 1.4-.5 2.8-.7 3.1-.4.3.3.3-.6 0-1.9-.4-1.9-.3-2 .7-.8 1 1.3 1.1 1.2.7-.6-.4-1.9-.1-2.1 2.7-1.7 1.7.3 3.3.7 3.5.9.2.2 1.2-.1 2.3-.7 1.5-.8 1.8-2 1.7-5.4-.2-3.1-.6-4.2-1.6-3.8-1.1.4-1.1.9-.1 2.2 1 1.3 1 1.4-.2.4-1.5-1.4-2.3-4.6-.9-3.7.5.3.9.3.9 0 0-1.4-3.7-2.4-5.1-1.4-1.2.8-1.2.9.2.5.9-.3 1.6.1 1.6.9 0 1.9-3 .1-3.3-2-.1-.9.2-1.4.7-1 .5.3.9.3.9 0s-1.3-1.2-2.8-2c-2.1-1.1-3.2-1.2-4.7-.3-1.9 1-1.9.9-.5-.8 1.4-1.7 1.4-1.8-1-.5s-2.4 1.2-1-.5 1.4-1.8-.9-.6c-1.5.8-2.1.9-1.7.2.4-.7-.1-1.1-1.3-1.1-2 0-4.6 3.2-3.5 4.3.3.3-.1.5-.8.4-.7 0-2.2.1-3.3.2-1.7.1-1.8.3-.5 1.1 1.1.8.8 1-1.5.8-2.5-.3-3 .1-2.9 1.8 0 1.4-.4 2-1.3 1.7-.7-.3-1-1-.6-1.7.3-.6-.4-.1-1.6 1.1-1.5 1.6-3.1 2.1-5.5 1.9-2.8-.2-3.4.1-3.1 1.6.2 1 0 1.6-.6 1.3-.5-.4-.6-1.1-.3-1.7.5-.7.2-.9-.8-.6-.8.4-1.5 0-1.5-.8 0-.7.5-1 1-.7.6.4.7.1.3-.6-.5-.7-1.4-1-2.2-.7-3.5 1.4 1-3.6 6.4-7 3.1-1.9 6.8-4.3 8.1-5.3 2.9-2 3.9-6.9 1.6-7.7-.8-.3-1.3-.9-1.1-1.3.2-.3-.9-.5-2.5-.5-4.6.2-5.1.3-4.5 1.2.3.5-.5.8-1.7.8-1.3-.1-2.1.4-1.9 1.2.2 1-.2 1-2 .1-2.2-1.2-2.2-1.1-.8.6 1.4 1.7 1.4 1.8-1 .5-2.3-1.2-2.4-1.2-1.2.3 1.1 1.3 1 1.7-.5 2.5-1.1.6-2.5.7-3.4.2-1.1-.6-1.6-.5-1.6.5 0 .8.5 1.1 1 .8.6-.3.7-.1.3.5-.5.9-1.3.9-2.6.2-2.1-1.1-3.8.4-1.9 1.6.8.5.9.3.4-.6-.5-.9-.4-1.1.3-.6 1.5.9 1.5 1.1-.5 2.7-1.2 1-1.5 1.1-.9.1.6-.9.1-1.1-1.8-.8-4.8.9-6.6 1.7-6 2.8.4.7.2.8-.5.4-.9-.6-.9-1.1.1-2.4 1.2-1.4 1-1.4-1.2-.2-2.4 1.3-2.4 1.2-1-.5s1.4-1.7-.7-.7c-2.6 1.4-4.5 1.6-2.1.2.9-.6 1.4-1.8 1.1-2.9-.4-1.4 1.4-3.1 7.5-7.5 7.5-5.2 8-5.9 7.8-8.9-.2-2.5-.7-3.2-2.4-3.1-1.2 0-1.9-.3-1.6-.8.8-1.2-3.8-1-5.6.3-1.3.9-1.2 1 .3.5 2.3-.7 2.2.1-.2 1.3-1.5.9-1.8.7-1.7-1.2 0-1.2-.4-2.1-1-2-.7.1-1.1-.5-1-1.4.1-1.5-1.6-2.7-7.4-5.3-.8-.4-2.1-.5-2.8-.2-1 .3-.9.9.5 2.6l1.8 2.1-2.2-1.9c-1.7-1.4-2-2.2-1.2-3.2s.5-1.1-1.2-.7c-1.4.4-2 .2-1.6-.4.5-.7-.1-.9-1.5-.5-1.5.3-1.9.2-1.4-.7.6-.9 0-1-2-.5-1.8.5-2.5.3-2-.4.4-.6-.2-.8-1.6-.4-1.2.3-1.9.1-1.5-.4.9-1.5-2.7-3.4-4.4-2.3-.8.5-1.8.9-2.4.9-.5 0-.3-.5.5-1 1.1-.7.7-1-1.8-1-1.8 0-3.1.4-2.8.8.3.5-.8.6-2.5.4-1.8-.3-2.9 0-2.9.7s.4.9 1 .6c.6-.3.7.1.3 1-.5 1.3-.7 1.4-1.4.3-.7-1-.9-1-1 .2-.1.8-.1 1.8-.1 2.1.1.3-1.2 1.9-2.8 3.4-3.4 3.2-3.6.9-.3-2.7 1.2-1.3 2.2-3 2.4-3.8.3-1.9-1.1-5.2-2.5-6.2-1.7-1.2-7.4-.9-8.2.4-.5.7-.3.8.7.3.8-.5.5.1-.5 1.3-2 2.3-3.6 3.1-1.7.9 1.1-1.4.5-2.5-5-8.9-1.9-2.3-3.5-3.1-7-3.5-4.9-.4-11.2.4-10.5 1.5.2.4-.6.7-1.9.7-1.3 0-2.2-.2-2-.5.2-.3-.3-1-1-1.7-1.1-1-1.5-1-1.9 0-.3.7-.4 0-.3-1.5.3-1.6 0-2.6-.7-2.5-.6.1-1-.3-.9-.8.2-1.6-5.9-1.6-8.4 0-1.3.9-2.3 2.4-2.3 3.4 0 2.2-3 2.4-4.8.2-1-1.3-1.1-1.4-.9-.1.2.8.2 1.2 0 .7-.3-.4-.9-.5-1.3-.2-.5.3-1.2 0-1.6-.6-.4-.7-.3-.9.4-.5 1.7 1 2.1-1.7.4-3.6-1.2-1.4-1.9-1.5-3.6-.6-2 1.1-2 1-.6-.7.9-1.1 1-1.6.3-1.1-.7.4-1.3.3-1.3-.1 0-1-13.8-1.5-15.8-.7zm20.7 3.8c1.1 1.4.6 1.5-2.7.7-.4-.1.8-2.1 1.2-2.1.2 0 .9.6 1.5 1.4zm-6.8 6.3c1.3 1.6 1.2 1.7-.3.4-1-.7-1.8-1.5-1.8-1.7 0-.8.8-.3 2.1 1.3zm50.8 1.7c1.7 1.8 1.9 2.4.7 2.2-1.9-.3-2.9-1.2-3.2-3.1-.3-2-.1-1.9 2.5.9zm-37.4.7c-.3 1.2-.7 2.4-1 2.7-.3.3-.3-.5-.1-1.9.6-3 .5-2.9 1-2.9.3 0 .3 1 .1 2.1zm-22.5.9c-.6 1.1-1.3 2-1.6 2-.2 0 0-.9.6-2s1.3-2 1.6-2c.2 0 0 .9-.6 2zm6 1.4c0 1.5-4.9 7.1-5.6 6.3-.3-.2.3-2.1 1.2-4.1 1.7-3.5 4.4-4.9 4.4-2.2zm2.4 2.8c-.3.5-1 .5-1.6.2-.6-.4-.8-.1-.6.7.7 1.8-3 5.9-4.6 5.3-.8-.3-.1-1.8 2.1-4 1.8-2 3.3-4.1 3.3-4.7 0-.7.4-.6.9.3.6.8.7 1.8.5 2.2zM599 199c-.6 1.1-1.3 2-1.6 2-.2 0 0-.9.6-2s1.3-2 1.6-2c.2 0 0 .9-.6 2zm80.2.6c.2.7 0 1.1-.4 1-.4 0-3.3 2.4-6.5 5.4l-5.8 5.5 5.9-6.2c3.9-4.1 5.6-6.5 5.1-7.5-.6-.9-.5-1 .3-.3.6.5 1.2 1.5 1.4 2.1zm-61.1.1c-.5 1-2.2 2.9-3.7 4.3-2.3 2.1-2.2 1.8.7-1.7 3.7-4.6 4.5-5.3 3-2.6zm25.9-1.3c0 .2-.8 1-1.7 1.7-1.6 1.3-1.7 1.2-.4-.4 1.3-1.6 2.1-2.1 2.1-1.3zm8 1.8c0 .6-.9 2.2-2.1 3.4-1.5 1.6-1.7 2.4-.8 2.9.8.6 1 .4.4-.5s-.4-1.1.5-.5c.9.6 1.1.4.5-.5-.6-.9-.4-1.1.5-.5.9.6 1.1.4.5-.5-.6-.9-.4-1.1.5-.5.8.5 1.1.4.7-.1-.3-.6-.2-1.6.4-2.4.6-1.1.9-1.2.9-.2 0 .8.5 1 1.3.6.6-.4-.6 1.2-2.7 3.4-2.8 2.9-4.4 3.9-5.4 3.3-.8-.5-2.3-.6-3.3-.4-3 .8-2.2-1.7 1.7-5.3 3.6-3.4 6.4-4.4 6.4-2.2zm13 3.1c0 .2-1 1.2-2.2 2.3l-2.3 1.9 1.9-2.3c1.8-2.1 2.6-2.7 2.6-1.9zm-18.5 6.7c-.3.5-1.3.6-2.1.3-1.2-.4-1.3-.8-.3-1.4 1.5-.9 3.2-.2 2.4 1.1zm14.5-1.7c0 .2-1 1.2-2.2 2.3l-2.3 1.9 1.9-2.3c1.8-2.1 2.6-2.7 2.6-1.9zm13.7 3.2c0 .8-.8 2.2-1.8 3.1-1.5 1.3-1.7 1.3-1.5.1.2-1.3 2.4-4.7 3.1-4.7.1 0 .2.7.2 1.5zm12.3-.2c0 .2-1.7 1.9-3.7 3.8l-3.8 3.4 3.4-3.8c3.3-3.4 4.1-4.2 4.1-3.4zm3.7 9.5c-4.8 4.8-8.5 9-8.2 9.3.3.3-.2.6-1.1.6-.8 0 2.6-4.2 7.8-9.4 5.1-5.1 9.5-9.3 9.8-9.3.2 0-3.5 4-8.3 8.8zm-58.1-5.6c1.9 2.3 1.9 2.3-.2.5-1.1-.9-2.4-1.4-2.9-1-.4.5-.5.2-.1-.5.9-1.6 1-1.6 3.2 1zm88.4-.8c0 .2-1.7 1.6-3.7 3.1l-3.8 2.6 3.5-3c3.4-3.1 4-3.5 4-2.7zm-13 1c0 .2-.8 1-1.7 1.7-1.6 1.3-1.7 1.2-.4-.4 1.3-1.6 2.1-2.1 2.1-1.3zm-29 3c0 .2-.8 1-1.7 1.7-1.6 1.3-1.7 1.2-.4-.4 1.3-1.6 2.1-2.1 2.1-1.3zm56.7 2.1c0 .8-.4 1.2-.9.9-.5-.3-.6-1-.3-1.5.9-1.3 1.2-1.1 1.2.6zm-22.7-.2c0 .2-1 1.2-2.2 2.3l-2.3 1.9 1.9-2.3c1.8-2.1 2.6-2.7 2.6-1.9zm-54.3 2c.6.7 1.4 3.7.9 3.7-.1 0-1.3-1.1-2.5-2.4-1.7-1.8-1.9-2.4-.7-2.2.8.1 1.9.5 2.3.9zm16.3-.8c0 .2-1 .9-2.2 1.5-2.2 1.1-2.2 1-.4-.4 2.1-1.7 2.6-1.9 2.6-1.1zm44 .9c0 .2-.8 1-1.7 1.7-1.6 1.3-1.7 1.2-.4-.4 1.3-1.6 2.1-2.1 2.1-1.3zm-11 1.9c0 .2-1 1.2-2.2 2.3l-2.3 1.9 1.9-2.3c1.8-2.1 2.6-2.7 2.6-1.9zm7 1c0 .2-1.2 1.4-2.7 2.8l-2.8 2.4 2.4-2.8c2.3-2.5 3.1-3.2 3.1-2.4zm12 .1c0 .2-.8 1-1.7 1.7-1.6 1.3-1.7 1.2-.4-.4 1.3-1.6 2.1-2.1 2.1-1.3zm-24 2.9c0 .2-1.5 1.6-3.2 3.3l-3.3 2.9 2.9-3.3c2.8-3 3.6-3.7 3.6-2.9zm20 .1c0 .2-.8 1-1.7 1.7-1.6 1.3-1.7 1.2-.4-.4 1.3-1.6 2.1-2.1 2.1-1.3zm36.8 4.1c-.3.3-.9-.2-1.2-1.2-.6-1.4-.5-1.5.5-.6.7.7 1 1.5.7 1.8zm-40.8-1.1c0 .2-.8 1-1.7 1.7-1.6 1.3-1.7 1.2-.4-.4 1.3-1.6 2.1-2.1 2.1-1.3zm-24.2 4.2c.2.1-.5.5-1.5.8-.9.4-1.4.4-1 0 .4-.4.1-1.4-.6-2.3-1.1-1.4-1-1.5.8-.1 1.1.8 2.1 1.5 2.3 1.6zm20.2-1.2c0 .2-.8 1-1.7 1.7-1.6 1.3-1.7 1.2-.4-.4 1.3-1.6 2.1-2.1 2.1-1.3zm16.4 6.5c.3.5-.1 1.4-.8 2-1.2 1-1.4.9-1.1-.6.2-1 .4-1.9.4-2.1.2-.5 1-.2 1.5.7zm49.3 3.6c0 .8-.4 1.2-.9.9-.5-.3-.6-1-.3-1.5.9-1.3 1.2-1.1 1.2.6zm-40.7-.1c0 .2-1.2 1.1-2.7 2l-2.8 1.7 2.4-2c2.3-2.1 3.1-2.5 3.1-1.7zm11.6 9.1c-.1.8-.5 1.7-.8 2.1-.5.4-.4-1.6.1-3.4.3-.9.9.1.7 1.3zm-13 3.3c-.5.4-6.6-2.6-6.6-3.3 0-.3 1.6.3 3.5 1.2 1.9.9 3.3 1.8 3.1 2.1zm41.5.9c1.3 1.6 1.2 1.7-.3.4-1-.7-1.8-1.5-1.8-1.7 0-.8.8-.3 2.1 1.3zm-15.4 6c0 .9-.6.9-2.1.1-3-1.5-3-1.6-.3-1.4 1.3 0 2.4.6 2.4 1.3z"/><path d="M606.4 200.2l-1.9 2.3 2.3-1.9c2.1-1.8 2.7-2.6 1.9-2.6-.2 0-1.2 1-2.3 2.2zM509.5 188c-.2.3 0 1.1.4 1.8.5.8 1 .6 1.8-.7.9-1.4.8-1.8-.3-1.8-.8 0-1.7.3-1.9.7zm-57.8 8.7c2.1 1.6.9 1.7-2 .1-2.1-1-2.1-1-.7.7 1.4 1.7 1.4 1.8-1 .5-2.2-1.1-2.3-1.1-1.3.1 1 1.2.6 1.5-2.2 1.4-1.9-.1-3.2.2-3 .6.3.4-.2 1-1.1 1.3-.9.3-1.2.2-.9-.4.4-.7-.9-.8-3.7-.4-4.6.7-7.8 3.3-7.8 6.6 0 1.1-.5 1.6-1 1.3-.7-.4-.9.2-.7 1.7.2 1.2.2 1.7 0 1-.3-.7-.8-1-1.3-.7-.5.3-1.2.1-1.5-.5-.5-.8-1.1-.8-2 0-1 .8-1.5.8-2.1-.1-.4-.8-.3-.9.4-.5s1.2.2 1.2-.3c0-2.1-4.2-1-7.1 1.8-1.6 1.6-2.9 2.4-2.9 1.8 0-.8-.3-.7-.9.2-.7 1.1-.9 1.1-1.3 0s-1-1.1-3.6 0c-3.1 1.3-5.2 5.1-5.2 9.5 0 1.2-.4 1.6-.8 1.1-.4-.6-1.6-1-2.7-1s-2.6-.7-3.3-1.7c-1.2-1.6-1.6-1.7-4.2-.3-3.4 1.8-5.4 5-4.6 7.2.5 1.3.4 1.4-.8.4-1.2-1-1.3-.8-.9 1 .4 1.4.2 2-.4 1.6-.7-.5-.9.1-.5 1.5.3 1.4.1 1.9-.6 1.4-.8-.5-1 .3-.6 2.6.4 2.5.3 2.9-.5 1.8-.8-1.1-.9-.7-.4 1.9.4 2.5.3 3.2-.6 2.7-.9-.6-1 0-.5 2.1.4 1.5.8 3 1 3.2.2.2-.1 1-.7 1.8-.7.8-.8 1.8-.3 2.6.5.7.1.4-.8-.6-1.6-1.8-2.3-1.5-1.9.6.1.5-.3.6-.9.2-.6-.3-.8-1-.5-1.5.3-.4.2-1-.2-1.3-.5-.2-.3-.3.3-.1 1.3.3 3.4-1.5 3.4-3 0-.6-.5-.5-1.2.2-2 2-2.5 1.4-2.5-3.2 0-2.5-.5-5.2-1.3-6-1.9-2.4-7.3-2-9.6.6-1.9 2.2-1.9 2.3.1.8 1.1-.8-.2.9-3 3.8-4.9 5.2-7 6.8-4.4 3.4 1.2-1.5 1.2-1.6-.2-.5-.9.7-2 .9-2.4.5-.5-.4-.5-.1-.1.6s.2 2-.5 2.8c-1.7 2.1-3 10.7-1.4 9.4.9-.7 1.6-.6 2.5.5.7.8.9 1.5.4 1.5s-.2.5.6 1.1c1.3.9 1.2 1-.3.5-1.6-.5-1.6-.4-.1 1.9.9 1.3 1.2 3 .8 3.7-1.6 2.5-2.1 9.5-.8 9.5.7 0 1-.5.7-1.1-.4-.6.1-.5 1 .3 1.2 1 1.4 1.7.7 2.6-.8.9-.4 1.1 1.7.8 2.5-.3 2.6-.2.8.7-1.6.8-1.2.9 1.8.6 4.9-.6 9.4-4 13.8-10.4 2.1-3.2 4.3-5.2 5.9-5.5 1.4-.3 3.3-.7 4.4-.9 2.2-.5 3.1-2.1 4-7.1.7-3.8 2.2-4.7 4.4-2.5.7.7 1.2.9 1.2.5s.8-.3 1.8.2c1.4.7 3.2.4 7-1.4 2.9-1.3 5.2-2.7 5.2-3 0-.3-.6-.3-1.2.1-.7.4.2-.8 2.1-2.5 2.7-2.6 4.1-3.2 7-2.9 3.3.2 3.6.1 3.3-2.2-.2-1.8 0-2.1.6-1.2.7 1 1.1.6 1.5-1.6.6-3.1 3.2-4.9 4.3-3 .5.7.2.8-.7.3-.8-.5-1.1-.4-.6.1 1.5 1.6 8.1 1.2 10.2-.6 1.1-1 3.7-2.1 5.8-2.4 2.6-.5 4.1-1.4 4.7-2.9.5-1.2.9-1.6.9-.8.2 3.8 1.2-.5 2.1-9.5.6-5.4 1.3-10.7 1.6-11.6.3-.9 2.7-3.2 5.3-5.1 5-3.6 5.9-6 3.3-9-1.1-1.2-2.7-1.6-5.4-1.5-3.3.3-3.6.5-2.1 1.5zm7 .5c1.2 1.5 1.3 4.9.2 4.2-.5-.3-1.9 0-3.1.6-2.2 1-2.2 1-.4-.4 1-.8 2.4-1.7 3-2 .7-.3.3-1.1-.8-2-1.1-.9-1.5-1.6-.9-1.6s1.5.6 2 1.2zM416 210.4c0 .2-.8 1-1.7 1.7-1.6 1.3-1.7 1.2-.4-.4 1.3-1.6 2.1-2.1 2.1-1.3zm7.3.9c.3.8-.1 1.4-.8 1.4-.7 0-1.1-.6-.8-1.4.3-.7.6-1.3.8-1.3.2 0 .5.6.8 1.3zm-15.4 2c-.2.2-1.7 1.1-3.4 2.1l-3 1.7 2.4-2c1.3-1.2 2.8-2.1 3.4-2.1.6 0 .8.1.6.3zm-19.2 21.9c-.3.8-.6.5-.6-.6-.1-1.1.2-1.7.5-1.3.3.3.4 1.2.1 1.9zm52-.6c-.3.3-1.2.4-1.9.1-.8-.3-.5-.6.6-.6 1.1-.1 1.7.2 1.3.5zm-27 10.6c-1.6.9-2.7 0-2.1-1.7.5-1.1.9-1.2 1.9-.2.9.8 1 1.4.2 1.9zm-41.7-1.9c0 .2-1.2 1.4-2.7 2.8l-2.8 2.4 2.4-2.8c2.3-2.5 3.1-3.2 3.1-2.4zm-7 3c0 .2-1 1.2-2.2 2.3l-2.3 1.9 1.9-2.3c1.8-2.1 2.6-2.7 2.6-1.9zm25 1c0 .2-1 1.2-2.2 2.3l-2.3 1.9 1.9-2.3c1.8-2.1 2.6-2.7 2.6-1.9zm-35.7 3.2c-.3.9-.8 1.4-1 1.1-.3-.3-.2-.9.2-1.5.9-1.6 1.5-1.3.8.4zm41.2 2.7c.4.3.2.9-.3 1.2-.5.3-1.5-.1-2.1-.8-1-1.1-.9-1.4.3-1.2.9.1 1.8.5 2.1.8zm4.1.3c-.1.8-.5 1.7-.8 2.1-.5.4-.4-1.6.1-3.4.3-.9.9.1.7 1.3zm-19.2 8.1c.3.8.2 1.2-.4.9-.6-.3-1-1-1-1.6 0-1.4.7-1.1 1.4.7zm-12.5 3.1c-.6.7-1.5 1-2 .7-1.3-.8-.3-2.1 1.5-2.1 1.2 0 1.3.4.5 1.4zm15.6-.7c-.3.5-1.4 1-2.3.9-1.4 0-1.3-.2.3-.9 2.7-1.1 2.7-1.1 2 0zm-25.8 2c.1 1.1-.2 2.2-.6 2.4-.6.4-.7-2.6-.2-4.2.3-.8.7.1.8 1.8zm4.7-1.2c.2.4-.4.8-1.4.8-1 0-1.6-.4-1.4-.8.3-.4.9-.8 1.4-.8.5 0 1.1.4 1.4.8zm1.4 4.9c-1.2 1.2-2.6 2.3-3.2 2.3-.6 0 0-.7 1.2-1.6 1.2-.8 2-1.9 1.8-2.3-.3-.4.2-.8 1-.8 1.1 0 .9.6-.8 2.4zm8.2.6c0 .2-1.9 2.1-4.2 4.2l-4.3 4 4-4.3c3.6-3.9 4.5-4.7 4.5-3.9zm216.6-71.9c.5 1.3.4 1.7-.4 1.2s-1-.2-.5 1c.6 1.5.7 1.5 1.6-.1.6-1.1.5-2.1-.3-2.8-.8-.9-.9-.7-.4.7zm89.8 9.8l-1.9 2.3 2.3-1.9c2.1-1.8 2.7-2.6 1.9-2.6-.2 0-1.2 1-2.3 2.2zm22.5 11.5c-1.3 1.6-1.2 1.7.4.4.9-.7 1.7-1.5 1.7-1.7 0-.8-.8-.3-2.1 1.3z"/><path d="M549.7 223.2c.2.5-1.1.8-2.9.7-1.8 0-5.8.2-8.8.6-3 .4-7.2.7-9.3.8-2 .1-3.7.6-3.7 1.1 0 .5-.2.7-.5.4-.3-.3-4.4.3-9.2 1.3-4.8 1-9 1.6-9.5 1.3-.5-.3-1.5 0-2.3.6-.8.7-2.1 1-2.9.7-.7-.3-1.8-.1-2.3.4-.5.5-2.3 1.1-3.9 1.3-4.4.6-5.8 1-6.5 1.9-.3.4-2 .9-3.7 1-1.8.1-3.2.5-3.2.9 0 .6-7.3 2.2-8.6 1.8-.4-.1-1 .3-1.3.9-.4.5-1.8 1.2-3.3 1.5-1.4.2-3.6.9-4.7 1.6-1.2.6-2.7.8-3.3.4-.7-.5-.8-.3-.3.6.6 1 .4 1.2-.8.7-1-.4-1.7-.2-1.7.4 0 .6-.7.8-1.6.5-.8-.3-1.2-.2-.9.4.5.9-2.3 1.5-4.7 1.1-.5 0-.8.4-.8 1 0 .5-.4.7-1 .4-.5-.3-1-.1-1 .4 0 .6-.3 1-.7.9-.5-.1-3.5 1.2-6.8 2.9-3.3 1.6-6.6 2.8-7.2 2.6-.7-.3-1.3 0-1.3.6 0 1-4.8 3.5-5.9 3.1-.2-.1-.7.2-1 .7-.3.5-3.3 2.5-6.6 4.3-3.3 1.9-10.6 6.6-16.2 10.6s-10.4 7-10.7 6.6c-.3-.3-.6-.1-.6.5 0 1.2-9.2 7.9-10.3 7.5-.5-.1-.6.2-.2.8.3.5.2 1-.2 1-.5 0-3.5 2.3-6.6 5.1-3.1 2.8-5.7 4.9-5.7 4.6 0-.2-4.4 4-9.7 9.4-5.3 5.4-9.9 9.7-10.1 9.4-.3-.3-1.5.3-2.6 1.2-1.9 1.7-2 1.7-.7.1 1.1-1.5 1-2.5-.5-6.8-2-5.6-7.6-13.5-11.4-15.9-2-1.3-2.3-1.4-1.5-.1.5.8-1.3-.5-4-2.9-6.2-5.4-8.3-6.5-16.5-8.5-6.1-1.5-22.7-1.6-35-.2-5.5.6-29.1 6.5-32.7 8.2-1.7.7-3.4 1.4-3.9 1.4-.4 0-8.7 3-18.3 6.6-18.1 6.8-50 21.7-51.4 24.1-.4.7-1.3 1.3-1.8 1.3-.6 0-4.8 2.2-9.2 4.8-4.5 2.6-8.9 5.1-9.7 5.5-.8.5-3.3 1.9-5.5 3.2-2.2 1.3-5.3 3.2-7 4.1-7.1 4-44 29-46.7 31.6-1 1-2.2 1.8-2.6 1.8-.5 0-2.4 1.5-4.3 3.2C80 383 76 386.5 73 389c-9.2 7.4-29.7 27.4-38 36.9-1.9 2.2-4.2 4.3-5.1 4.6-.9.3-2.2 1.6-2.9 3-.7 1.3-1.7 2.2-2.2 1.9-.4-.3-.8.4-.8 1.6 0 1.2-.4 1.9-1 1.5-1.1-.7-.6 6.2.5 7.3.5.4.5 0 0-.8s-.4-1.2 0-.7c1.2 1.1 1.5 3.7.4 3.7-2.1 0-.8 6.1 2.1 9.4 4.7 5.3 10.3 7 20.3 6.1 4.5-.4 11.4-.8 15.2-1 6-.3 8.2-1 15.8-5 5.1-2.6 11.8-5.2 15.9-6 3.8-.9 10.4-2.9 14.7-4.6 4.2-1.7 12.6-4.9 18.6-7.1 12-4.4 19.9-8.2 28.5-13.4 3.1-1.9 10.4-5.4 16.4-7.8 13.2-5.4 23.5-11.5 34.6-20.7 4.7-3.8 10.6-8.7 13.2-10.9 5.8-4.7 14.6-8.2 20.9-8.4 3.9-.1 5.6.6 10.5 3.9 3.2 2.2 8.8 7.1 12.4 10.9 17 17.8 24.9 25.3 25.4 23.7.3-.9.2 5.4-.1 13.9-.4 11.8-.8 15.8-1.9 16.6-3 2.4-34 9-45.5 9.8-4.3.3-10.9 3.2-10.9 4.7 0 .4.6 1.2 1.4 1.8 1 .9 1.3 2.9 1 7.7-.8 11.2 3.3 17.9 16.4 26.5 7.7 5.1 11.9 6.3 25.2 7.5 4.1.4 8.3 1 9.2 1.5 1.2.7 1.8.4 2.1-.9.3-.9.6 2.1.7 6.8.5 18.4.5 18.6 4.7 27.2 7.6 15.7 16.4 24.9 27.7 28.8 7.1 2.5 70.8 20.3 109.1 30.5 2.8.8 16.1 4.3 29.8 7.9 13.6 3.7 28.1 7.3 32.2 8.1 4 .7 8.5 2.1 9.8 3 1.4.9 6.1 7 10.6 13.5 6.1 8.9 9.2 14.7 12.2 22.7 2.2 6 4.7 12.2 5.5 13.9.8 1.7 1.4 4.8 1.4 7 0 2.1-.1 6.6-.1 9.9 0 6-1.2 17.9-2.8 28.5-.5 3-.5 6.2-.1 7 .4.8.5 2.1.3 2.8-.9 2.5 1.9 7.1 5.5 8.8 2.8 1.3 5.3 1.5 12.6 1.1 6.9-.4 10.4-.2 14.4 1.1 5.1 1.5 5.6 1.5 10-.2 2.6-1 6.7-1.9 9.2-2 2.5-.2 6.1-.6 8.1-1 3.4-.7 4-.5 7 2.9 3 3.2 3.7 3.6 7.8 3.3 3.8-.3 4.9-.8 6.7-3.5 2.2-3.3 4.7-14.7 5.9-27.3.6-6 2-15.3 6.1-40.9.8-5.1 2.6-12.1 3.9-15.4 3.3-8.1 17-28.4 20.6-30.6 1.6-1 5.9-2.1 9.5-2.4 3.5-.4 19.6-4.1 35.7-8.3 48.8-12.8 53.3-13.9 80.2-20.9 59.7-15.3 65.5-17.4 75.9-27.8 6.5-6.6 10.9-14.4 12.6-22.4.7-3.2 1-24.8.8-61.3l-.3-56.5-2.4-6.5c-5.6-15.2-16-34.1-29.8-54.1-12.2-17.7-22.2-29.6-37.4-44.4-12.5-12.1-29-26.9-25.5-22.7 1.2 1.3 1.4 2.2.7 2.2s-.9.4-.6 1c1.1 1.8-.1 1-2.9-1.9-2-2.1-2.4-3.1-1.5-3.6.8-.6 1-.4.4.5s-.4 1.1.4.6c.9-.6.8-1.3-.5-2.7-1.8-2-2.9-2.5-1.9-.9.3.5.1 1-.5 1s-.8.5-.4 1.2c.5.7-1.3-.5-3.9-2.6-3.4-2.8-4.4-4.2-3.7-5.1.5-.6.7-1.4.4-1.8-.9-.9-3.5.4-2.8 1.5.3.5-2.6-1.4-6.5-4.3-3.9-2.8-7.1-5.3-7.1-5.6 0-.2 1.4.5 3 1.7 1.7 1.2 3 1.9 3 1.6 0-.5-13.1-9.5-16-11-.8-.4-.4.2 1 1.4 1.8 1.5 2 1.9.5 1.1-1.1-.5-2.9-1.7-4-2.6-1.1-.9-1.4-1.4-.7-1 2.1 1.1 1.3-.4-.9-1.6-1.6-.8-2-.8-1.4.1.4.7-.6.5-2.4-.4-1.7-.9-3.1-1.9-3.1-2.2 0-.2.9 0 2 .6s2 .8 2 .6c0-.3-1.4-1.3-3.1-2.2-1.7-.8-2.8-1.1-2.4-.5.3.7-2.7-.5-6.9-2.6-4.1-2-7.3-4-7.1-4.3.3-.4-.7-1.2-2.1-1.9-3-1.3-4.5-1.4-2.4-.1.8.5 1.1 1 .5 1-1.3 0-4.3-2-3-2 .6 0 .3-.5-.5-1s-2.3-.7-3.4-.4c-1.1.4-1.6.2-1.2-.4.8-1.3-1.9-2.3-4.1-1.5-1 .4-1.4.2-1-.4.9-1.4-5.8-3.8-7.4-2.7-.8.5-.9.3-.4-.6.6-.9.2-1-1.5-.5-1.5.5-2 .4-1.6-.4.4-.6.3-1.1-.3-1.1-.5 0-1.8-.3-2.8-.6-1.5-.5-1.6-.4-.3.6s1.2 1.1-.3.6c-1-.3-2.4-.6-3-.6-.8 0-.7-.3.1-.9 1.8-1.1-2.9-2.4-5.4-1.4-1.2.4-1.5.3-1-.6.6-.9 0-1-2.1-.6-2.2.5-2.5.4-1.3-.5s.7-1-2-.5-3.2.4-2-.5c1.2-.9.9-1-1.3-.5-2.1.4-2.7.3-2.1-.6.5-.9 0-1-2-.5-1.4.3-2.6.2-2.6-.2 0-.5-1.2-.7-2.7-.5-2.3.4-2.5.2-1.3-.7 1.2-.9.6-1-2.5-.5-3 .4-3.6.3-2.5-.5 1.2-.8.8-1-1.7-.6-1.8.2-3.3.1-3.3-.3 0-.5-1.2-.6-2.6-.3-1.7.3-2.5.1-2.1-.5.4-.6-.8-.9-2.8-.8-1.9.2-3.5-.2-3.5-.7 0-.6-1.1-.8-2.5-.6-1.3.3-2.2.2-2-.2.4-.7-1.4-.8-12.7-.9-2.1 0-3.8-.4-3.8-1 0-.5-1.8-.7-4-.5-2.2.3-4 .1-4-.3 0-.5-8.3-.8-18.4-.8-10.1 0-18.2.3-17.9.7zm34.8 22.3c32.9 1.8 77.9 13.4 107 27.4 26.4 12.7 52.2 31.7 77 56.6 18.7 18.9 32.6 38.4 45.6 64.5 10.8 21.7 9.9 15.1 10.2 73.4l.2 51.1-2.4 5.2c-2.8 6.2-11.2 14.6-17.4 17.2-6.6 2.8-20.2 6.5-90.2 24.1-47.4 11.9-64.4 16.6-65.5 17.9-5.3 6.6-15.4 21.6-15.2 22.5.2.6 0 .8-.3.4-.4-.4-3.3 2.7-6.3 7-12.8 17.8-19 29.9-19.7 38.9-.2 2.4-.6 4.6-.8 5-.5.8-1.9 12.6-2.1 17.3-.1 1.4-.4 2.8-.9 3.1-.4.3-.9 2.6-1.1 5.1-.2 2.5-.6 5-.8 5.4-.6 1.1-1.1 7.8-1.1 15.6-.1 3.1-.4 5.5-.8 5.3-1-.7-1.6 2.4-1.5 7.8.1 2.6-.2 4.7-.6 4.7-.7 0-2.3 4-2.1 5.1.1.3-.4.6-1.2.6-1.3 0-1.3-4.7.1-9.4.5-2-.2-2.6-6.5-5.6-7.9-3.8-9.6-3.4-8.5 2 .4 2 .1 3.3-.7 3.8-.8.5-1 .4-.5-.3.4-.7.1-1.2-.8-1.2s-1.6.7-1.6 1.5-.5 1.5-1 1.5c-1.7 0-2.4-3.1-1.2-5.1 1-1.5.8-2.1-.9-3.3-1.9-1.3-2.5-1.2-6.9 2-3.7 2.7-4.7 3.9-4.5 5.9.2 1.4-.2 2.3-.8 2.2-.7-.1-1.1.5-1.1 1.4.1 1-.5 1.6-1.5 1.4-1.2-.1-1.5-1.1-1.3-3.8.3-2.6-.3-4.7-1.9-6.9-1.2-1.8-2.3-3.4-2.4-3.6-.2-.1-1.4.3-2.8.9-2.3 1.1-5.5 6.3-4.9 8.1.1.5-.4.7-1.1.5-.6-.1-1.1.4-.9 1.1.1.8-.5 1.2-1.5 1-1-.2-1.7-1.2-1.7-2.3 0-2.8 1.4-6.5 2.3-6.5 1.3 0 7.2-8 6.6-8.9-.3-.5-3 .5-6 2.3-3 1.9-6.8 3.9-8.5 4.6-3 1.2-3.2 1.7-3.5 8.9 0 1.4-.7 2.6-1.5 2.9-1.3.3-1.3.2 0-.7 1-.7 1.1-1.1.3-1.1-1.6 0-1.8-8.1-.3-9.6 1.1-1.1 3.4-24.3 2.8-28.5-.3-1.6 0-3 .6-3.2.8-.3.8-.8 0-1.8-1.4-1.7-2.5-6.1-1.4-5.4 1.6 1 1.9-2.6.5-7.2-.8-2.7-1.1-4.9-.6-5.1.4-.1.6-1.5.4-3l-.4-2.7 1.4 2.4c.9 1.6 1.7 2 2.1 1.2.4-.6-.1-2.6-1.2-4.3l-2-3.2-.7 3.7c-.4 2.1-1.1 4-1.6 4.3-.5.3-.8.2-.7-.3.5-1.7-1.3-9.4-2.1-8.9-.4.3-.6-.6-.3-1.9.2-1.5 0-2.5-.7-2.5-.6 0-1-.3-.9-.7.5-1.8-2.4-8.3-3.4-7.7-.7.4-.8.2-.4-.4 1-1.6-1.2-5.4-2.6-4.6-.7.4-.8.3-.4-.4.9-1.5-4.3-9.4-5.7-8.5-.6.3-.7.1-.3-.5.7-1.2-6.7-12.1-15.1-22-5.2-6.2-13.6-17.2-15.1-19.8-.8-1.4-82.7-23.6-105.2-28.4-19.4-4.2-44.4-12.5-49.1-16.3-3.3-2.5-9.9-10.7-9.9-12.1 0-.3.7-.3 1.6.1 1.8.7 6.8-3.8 9.2-8.2.9-1.7 3.1-6.4 4.9-10.5 5.2-11.7 5.9-12.1 17.5-11.9 7 .1 9.8.5 10.2 1.5.3.7 0 1.1-.8.8-2.1-.8-7.9 3.9-10.3 8.5-2 3.8-2.1 4.7-1 6.5 1.1 1.7 1.1 2.6.1 4.5-2.5 4.8.4 15.5 4.8 17.7 5.1 2.6 9.3 1.1 15.8-5.6 6.8-7.1 11.6-15.8 13.4-24.2 2.3-10.6 2.5-10.8 14.6-12.8 8.6-1.5 26.3-7 38-11.8 7.8-3.1 9.6-4.3 10-6.3.3-1.3.7 15.1 1 36.6l.5 39 5.7.3 5.6.3v3.3c0 4.2 2.3 8.7 6.2 11.9 2.8 2.4 6 2.7 6 .6 0-1.2 3.6-1.1 8.2.2 2.6.7 4.3 1.9 5.3 3.9 1.2 2.4 2.2 3 4.8 3 3.7 0 5.7-1.5 5.7-4.3 0-1.7.5-1.9 3.8-1.3 2 .4 10 .9 17.7 1.3l14 .6.3 8 .2 7.9-12-.4c-6.6-.2-12-.3-12-.1 0 .7 14.3 18.8 15.1 19.1.5.2.9.8.9 1.4 0 .6-.9.3-2-.7s-2-1.4-2-1c0 1.5-6.9-5.7-12.3-12.8-2.9-3.7-5.3-6.3-5.5-5.8-.3 1 8.7 18.3 10.1 19.2.5.3.8 1 .7 1.5-.2 1.6 8.2 11.4 9.3 10.7.5-.3.7-.2.4.4-.3.5 1.9 4 4.9 7.7 3 3.8 5.5 7.4 5.5 8 .1.6.5-.7.9-2.9l.7-4 .2 3.9c.1 3.9 3.6 11 5 10.2.4-.3.8.1.8.7 0 1.6 7.4 11.7 8.5 11.7.4 0 .8.7.8 1.5s.5 1.5 1 1.5c.6 0 1-.9 1-2s-.4-2-.8-2-.8-1.7-.9-3.7c-.1-6.7-2.4-32.6-2.9-33.4-.2-.4-.6-4-1-8-.6-8.6-4-26.3-5.5-29.2-.8-1.5-.8-1.8.2-1.5.7.2 3.1 3.8 5.2 7.9 2.2 4.1 4.3 7.6 4.7 7.9.4.3 3.6 4.7 7 9.7 3.4 5.1 6.6 9.3 7 9.3 2.3 0 1.5-4.6-3-17.7-2.7-7.9-5-15-4.9-15.6 0-1.2.3-.6 6.5 17 2 5.7 3.9 10.3 4.3 10.3.4 0 1.8-2.3 3.1-5l2.4-5-2.2-2.8c-3.5-4.4-13.2-18.9-13.2-19.7 0-.4 3.4 4 7.5 9.9 4.2 5.8 7.9 10.6 8.4 10.6.8 0 7.3-13.4 9.3-19.3.6-1.5 1.4-2.7 2-2.7.6 0 .7.7.4 1.6-.3.9-.7 3.2-.7 5.2-.1 3.5-.2 3.6-.8.8-.5-2.6-.9-2.1-4 5.5-1.8 4.6-5.1 11.6-7.2 15.5-2.2 3.9-3.9 7.9-3.9 8.8 0 .9-.4 1.6-1 1.6-.5 0-1.2 1.1-1.6 2.5-.3 1.4-1.1 2.5-1.6 2.5s-.8.6-.6 1.2c.3.7-.1 1.9-.9 2.6-1.6 1.6-1.7 3.6-.2 2.6.6-.3-.1 1.1-1.5 3.2-3.6 5.4-7.8 16.2-7.3 18.8.3 2.1.4 2.1 1.2.1.4-1.1 2.9-6.8 5.5-12.7 2.6-5.9 4.4-10.5 3.9-10.2-.5.3-.9.1-.9-.5 0-.5.5-1.3 1-1.6.6-.4 1.9-2.3 3-4.3 1.2-2 2.9-5.1 4-6.7 3.5-5.5 5.1-8.5 4.3-8.5-.5 0-.3-.4.3-.8 1.7-1.1 6.4-10.8 6.4-13.2 0-1.1.7-2.3 1.5-2.6.7-.3 2.2-2.7 3.1-5.2 1-2.6 2.1-5.1 2.6-5.7 1-1.1-1.1 4.8-4.1 11.9-1.6 3.6-2.1 6.5-1.9 10.5l.3 5.5 5.8-11.8c3.1-6.5 6-12.8 6.3-14.2.3-1.3 1.2-2.4 2-2.4 1.8 0 1.8 1.6.1 2.7-.7.4-3 5.1-5.1 10.3-2.2 5.2-5.2 12.1-6.8 15.2-1.5 3.2-2.8 6.4-2.8 7.3 0 1.3-.3 1.3-1.3.3-.8-.7-1.3-1.9-1.1-2.8.8-4.3 1.1-10 .6-10-.4 0-1.5 1.4-2.5 3.2-1.2 2.2-1.5 3.4-.7 4.2.5.5 1 1.5 1 2.1 0 .5-.4.4-.9-.4-1.3-2-2.2-1-5.6 5.6-1.6 3.2-3.3 5.9-3.7 6.1-1.2.6-.9 3.7.5 5.2 1 1.2.9 1.2-.6.1-.9-.8-2-1.1-2.4-.7-.7.6 7.7 18.6 8.7 18.5.3 0 1.8-2.1 3.5-4.7 1.6-2.6 6.2-9.3 10.2-15 7.7-10.8 9.9-16.3 4.1-10.1-1.8 2-2.7 2.8-2 1.9.6-.9 1.2-2 1.2-2.4 0-.4.9-1.6 2-2.8 1.6-1.8 2-3.7 2.1-10.2.1-4.5.5-10.8.9-14.1.6-4.8.8-3.4.6 6.8 0 7 0 12.7.1 12.7.6 0 9.2-11.7 9.2-12.5 0-.6-.9-.9-1.9-.7-1.8.3-2-.3-2-7.7V567l11.3-.1c6.1 0 13.8-.4 17-.8 5.5-.7 5.7-.6 5.7 1.6s.9 2.7 3.7 2.4c.7-.1 2.2.3 3.3.9 1.8 1 2.6.6 5.3-2.4 2.8-3 4-3.5 8.7-3.9 4-.3 5.8 0 6.6 1.1.9 1.2 1.4 1.2 4-.1 1.7-.9 3.7-2.3 4.4-3.2.8-1 2.4-2.1 3.7-2.6 2-.8 2.3-1.5 2.3-6.8v-6l6.3-.3 6.2-.3v-186l-117.2-.3c-104.4-.2-120.9-.5-116.5-2.4.4-.2 2.1-3.8 3.6-8.1 3.6-10 5.7-11.7 13.4-11 4.9.4 7.3-.1 17.2-3.7 13.3-4.8 24.4-8 28.1-8 1.4 0 2.9-.3 3.2-.7.7-.7 11.4-1.4 19.5-1.4 2.9 0 4.5-.4 4.9-1.4.7-1.9 2.7-1.9 4.3 0 .6.7 3.1 1.7 5.5 2 5.1.8 10.3-1.3 13.9-5.6 3.1-3.6 3.6-3.6 3.6 0s3.1 6.1 7.5 6.1 7.7-2.1 10.1-6.3c2.4-4.3 3.6-4 2.3.6-1.3 4.7-.3 6.9 2.9 6.3 13-2.7 22.2-2.9 22.2-.5 0 1.4 3 1.1 3-.4.1-.6 2-5.7 4.4-11.2 4.2-9.7 4.4-10 8.4-11.2 2.3-.6 4.2-1 4.2-.9 0 .2-1.2 3-2.6 6.2-1.4 3.3-3.5 8-4.5 10.6L630 324l3 1.5c2.8 1.5 3.1 1.4 3.6-.2 1.1-3.3 8.8-21.8 9.4-22.5.3-.4 2.7-1.4 5.3-2.2l4.8-1.4-2 3.1c-1.2 1.8-2.7 3.1-3.6 2.9-1.2-.2-1.4.3-1 2.1.4 1.5-.1 3.6-1.4 5.8-2.4 4.1-4.3 11.9-2.9 11.9.5 0 .6.5.2 1.1-.5.8 0 1 1.7.6 1.3-.3 5.9-1.1 10.1-1.7 6.8-1 8-.9 10.3.6 3.2 2.1 9.9 1.5 16.6-1.5 5.7-2.6 7.8-4.9 8.6-9.5.7-4.6-1.6-7.4-6.9-8.2-4.9-.8-5.7-2.1-2.2-3.4 2.2-.9 2.9-.8 3.6.3.9 1.7 5.5 1.1 8.1-1.1.9-.8 1.7-2.6 1.7-3.9 0-3.5-3.7-4.5-10.2-2.8-10.4 2.7-12.9 4.4-13.6 9.2-.4 3.5 2.1 5.9 7.9 7.3 4.2 1 4.7 1.4 3.9 3-.8 1.5-8.6 5-11.2 5-1.7 0-.7-1.8 1.3-2.3 1.7-.5 1.9-.9 1-2.6-1-1.8-1.5-1.9-3.9-.9-1.5.7-3.4 1.8-4.3 2.5-.8.7-3.6 1.3-6.2 1.3-2.5 0-5.7.4-7.2 1l-2.6 1 1.8-3c.9-1.7 2.1-3 2.5-3 .4 0 .7-.5.5-1.2-.1-.7 1.6-1.5 4.3-1.9 8.9-1.5 9.5-1.7 9.1-3-.2-.8-.4-2.1-.5-2.9-.2-1.1-1.3-1.4-3.8-1.2-2 .2-3.8-.1-4.1-.5-1.2-1.9 1.1-3.3 7.6-4.5 6.9-1.3 8.1-2.5 5.3-5.4-1.3-1.2-3.3-1.2-15.3.1-7.6.9-14.4 1.8-15.2 2.1-.8.2-1.8-.1-2.2-.7-.5-.9-2.7-.9-9 .1-4.6.6-8.5.8-8.6.3-1.2-3.2-2-3.4-10.4-2.4-4.6.5-10.2 1.1-12.4 1.3-4 .3-4 .3-9.1 9.9-6 11.3-8.4 14.8-10.3 14.9-1 0-1.2-.8-.7-3.3.4-1.7 1.1-3.4 1.6-3.5.6-.2.8-.8.4-1.3-.3-.5 0-.9.6-.9s.9-.4.6-.8c-.3-.5.8-3.7 2.4-7.1 1.7-3.5 3-6.5 3-6.8 0-.2-1.5-.3-3.2-.1-2.1.2-3.3-.2-3.4-1-.1-.6-.2-1.9-.3-2.7 0-.8-.6-1.5-1.1-1.5-.6 0-2.5-1.6-4.3-3.7-4.3-4.9-18.8-15.8-28.4-21.3-26.7-15.4-43-16.3-61.6-3.6-3.4 2.3-13.2 8.7-21.7 14.1-31.3 20.1-55.5 42.9-79 74.5-3.5 4.7-7.2 9.5-8.3 10.7l-1.9 2.2-4-3.7c-2.2-2-6.7-7.1-10.1-11.2-3.3-4.1-6.6-7.4-7.4-7.4-1.8.2 6.4-8.7 17.1-18.5 9.7-8.9 27.3-22.4 37.1-28.6 3.3-2.1 9.1-5.8 12.9-8.3 21.9-14.2 63.8-29.9 95-35.7 15.8-2.9 45.7-5.6 54.1-4.9 1.7.2 7.5.6 13 .9zm-65.2 10c-.1.5-1.4 1.3-3 1.7-1.5.4-5.6 3-9.1 5.7-6.4 5-27.2 26.5-27.2 28.1 0 1.1-6.5 3-10.4 3-2.2 0-2.7.4-2.2 1.6.3.9.6 2.2.6 3 0 .9.4 1.2 1 .9.5-.3.2.8-.8 2.4-.9 1.7-2.5 3.1-3.6 3.1-1.4 0-1.7.5-1.3 2.1.4 1.3-.7 3.7-3.1 7l-3.7 5-5.7-.2c-4.2-.2-5.5-.6-5.1-1.6.3-.7.9-1.3 1.5-1.3.5 0 .6-.5.3-1-.3-.6-.1-1 .5-1s.8-.5.5-1c-.3-.6-.1-1 .5-1s.8-.5.5-1c-.3-.6-.1-1 .5-1s.8-.5.5-1c-.3-.6-.1-1 .5-1s.8-.5.5-1c-.3-.6-.1-1 .5-1 .7 0 1-.7.6-1.5-.3-.8-.1-1.5.5-1.5s.7-.5.4-1c-.3-.6-.1-1 .5-1s.8-.5.5-1c-.3-.6-.1-1 .5-1s.8-.5.5-1c-.3-.6-.1-1 .5-1s.8-.5.5-1c-.3-.6-.2-1 .4-1 .5 0 1.1-.6 1.3-1.4.2-.8 3.7-5.4 7.8-10.3 4.1-4.8 7.5-9.1 7.5-9.4 0-.8 17.7-12.9 22.4-15.4 7.3-3.7 24-5.9 23.4-3zm12.3 7.1c9.1 3.8 21.8 10.6 26.9 14.5 5.5 4.1 6.7 6.2 6.3 10.6-.2 1.8-.7 2.2-2.3 1.7-1.1-.4-2.7-1.1-3.5-1.6-1.1-.7-1-.8.5-.3 2.8.9 1.6-.1-11.2-8.8-13.6-9.4-21.3-15.4-21.3-16.7 0-1.3.1-1.3 4.6.6zm14.9 18.6c6 3.2 10.7 5.7 10.2 5.8-3 .1-30.7-15.9-33.7-19.5-.8-1 1.7.4 5.5 3.1s11.9 7.5 18 10.6zm-25.4-12.5c1.3 1.7 1.3 1.7-.6.3-1.1-.8-2.2-1.6-2.4-1.7-.2-.2 0-.3.6-.3s1.7.8 2.4 1.7zM506 282.4c0 .2-.8 1-1.7 1.7-1.6 1.3-1.7 1.2-.4-.4 1.3-1.6 2.1-2.1 2.1-1.3zm-194 5.5c2 .6 5.8 2.5 8.5 4.3 2.8 1.8 5.4 3.1 5.8 3 .5-.1.6.2.3.6-.3.5.5 2 1.7 3.4 1.2 1.3 2.3 3.3 2.4 4.4.1 1 .7 3.2 1.4 4.9.7 1.6 1.2 3.3 1.1 3.7-.1.5.3.8.9.8.6 0 .9.7.5 1.5-.3.8-.1 1.5.5 1.5s.8.4.5.8c-.7 1.2 7.1 14.7 13.3 23.1 6.8 9.1 20.8 22.3 29.6 27.8 3.8 2.5 8.3 5.4 9.8 6.5 2.3 1.6 4.6 2 11.5 2.1l8.7.2-.4-4.3c-.2-2.8.3-5.2 1.4-6.9 1.4-2.1 1.5-2.9.5-4.9-1.5-2.8-.2-5.1 3.2-5.6 1.2-.2 2.6-1.1 3.2-2.1.9-1.5.7-2.2-1.1-3.4-1.3-.9-2.3-2.4-2.3-3.5 0-2.1 3.3-8.9 6.3-13 3.1-4.2 19.7-19.1 20.5-18.4.3.4 0 1.1-.8 1.6-.8.6-1.1 1-.6 1 .5 0 .3.6-.3 1.3-.6.8-.8 1.7-.4 2 .3.4.2.7-.3.7-1.4 0-1.5 3.8-.1 4.7.7.4 4.5.6 8.4.4l7.3-.3-3.5 8.2c-6.2 14.4-7.8 21.3-7.1 29.3.8 10.3 1.8 13.1 4.6 13.5 1.2.2 2.5 0 2.9-.6.9-1.3 17.5-3.2 24.6-2.8 7.4.4 15.7 4 21.4 9.2 3.7 3.3 7.1 8.1 7.1 9.9 0 1.1-6.9 3.5-10.2 3.5-1.8 0-4 .5-4.8 1-2.2 1.4.2 3.3 3.9 3.2 1.7 0 3.6.7 4.7 1.9s2.5 1.7 3.8 1.4c1.9-.5 2-.5.3.5-1.5.9-2.2.8-3.8-.6-1.9-1.7-2-1.6-4.7.9-3.3 3.2-9.1 5.7-13.2 5.7-3.7 0-9 2.1-10.8 4.2-.7.9-1.4 3-1.7 4.8-.5 4.5-1.9 5.7-7.1 6.3-2.6.2-5.8 1.4-7.3 2.6-3.6 2.9-12.2 6.9-17.7 8.1-2.5.6-7.3 2.2-10.7 3.6-3.9 1.7-9.3 2.9-15.1 3.4-7.2.7-10.2 1.5-15.5 4.3-8.2 4.2-15 5.6-33.9 6.7-8.4.5-17 1.6-20.1 2.5-4.8 1.5-6.4 1.5-13.3.4-9.5-1.5-14.6-.5-22.3 4.4-2.7 1.8-5.8 3.6-6.9 4.2-2.2 1.1-4 6.2-2.5 7.1 1.8 1.1.8 2.1-3 3.2-6.2 1.9-14.3 12.2-9.6 12.2.8 0 4.1-1.9 7.2-4.3 3.6-2.7 8.9-5.4 13.8-7 11.4-3.8 12.3-3.3 2.7 1.4-4.5 2.3-9.6 5.4-11.2 6.9-1.6 1.5-3.2 2.5-3.5 2.2-.3-.3-.5 0-.5.7s-.4 1-.8.7c-.5-.3-2.2.2-3.8 1-2.6 1.4-3.2 1.4-5.6 0-1.8-1.1-2.9-1.3-3.3-.6-.7 1.1-9.5 1-9.5-.2 0-.4-2.5-.4-5.6-.1-4.2.5-5.8.3-6.5-.8-.4-.8-2.1-1.5-3.6-1.6-1.5-.1-2.9-.7-3.1-1.3-.2-.5-.8-.8-1.3-.4-.5.3-.9.2-.8-.3.4-2-.2-4.3-1-4.3-.5 0-2.2-.5-3.8-1.2-1.5-.6-3.1-1.1-3.4-1-.4.1-.5-.7-.2-1.7.5-1.9-2.8-4.7-4-3.5-1.1 1.2-.1-3.2 1.1-4.4 1.7-1.9 1.5-3-.9-4.2l-2-1.1 2.1-1.9c1.5-1.3 3.7-1.9 6.8-1.9 8.4.1 42.9-7.3 49.1-10.6 1.6-.8 3.1-1.2 3.3-.9.3.3 3.1-.7 6.3-2.1 3.2-1.4 6.4-2.5 7.1-2.5.8 0 1.4-.5 1.4-1.1 0-.5.5-.7 1-.4 1.9 1.2 12.2-5.6 24.1-15.7 8-6.9 10.4-14.8 4.5-14.8-3 0-7.8 3.3-14.2 9.7-5 5-12.5 8.6-13.2 6.3-.2-.6-.9-.7-1.4-.4-.6.4-.8.3-.5-.3.9-1.4-6.4-8.1-9.3-8.5-2-.2-2.6-1-3.1-4.1-.6-3.7-5.5-10.1-7-9.1-.4.2-1 0-1.4-.6-.4-.6-1.1-.8-1.6-.4-.6.3-1.3-.3-1.6-1.5-.3-1.1-1-1.8-1.5-1.5-.5.3-.8-.2-.6-1.2.2-1.3-.2-1.8-1.4-1.6-1 .2-1.8-.2-1.8-.8 0-.5-.5-.9-1.2-.7-.7.1-1.2-.7-1.3-1.8 0-1.3-.8-2.1-2.2-2.3-1.4-.2-2.7-1.6-3.8-4.5-1.7-4.4-10-13.2-11.4-12.2-.5.3-1.2-.2-1.5-1.1-.3-.8-1-1.2-1.6-.9-.5.3-1-.1-1-.9 0-1.8-5.4-5.8-6.4-4.8-.4.4-.7.2-.6-.3.6-2.7-.1-3.5-2.4-2.9-1.3.3-2.7.1-3.1-.5-.3-.6-1-.9-1.5-.6-.4.3-1.4-.3-2.1-1.2-1.2-1.4-1.2-1.6.1-.9.8.5.5-.1-.7-1.4l-2.1-2.3-3.4 2.7c-1.9 1.4-4 2.6-4.6 2.6-.7 0-1.2.5-1.2 1.1 0 .6-.7.9-1.5.6-.8-.4-1.7-.2-2.1.4-.3.5-1.3.9-2.2.7-1-.1-2.3.1-2.9.5-2.3 1.4-1.4-.9 1.3-3.4 4.8-4.4 20.6-23 20.1-23.5-.3-.3-1.6-.1-2.9.5-2.1 1.1-2.1 1 .2-.6 1.4-.9 4.8-4 7.5-6.9 5.3-5.4 14.2-11.5 20.3-13.9 2.1-.8 7.5-2.4 12.2-3.5 4.7-1.2 10.3-3.2 12.5-4.5 4.7-2.7 11.2-9.2 10.2-10.1-.4-.4-4.4.3-8.9 1.6-4.6 1.3-10.6 2.4-13.4 2.4-3.8.1-6.1.8-9 2.8-2.4 1.7-5.3 2.8-7.3 2.8-2.3 0-4.2 1-6.8 3.5-2 1.9-4.1 3.5-4.8 3.5-.6 0-2.7 1.6-4.6 3.6-1.8 2-5.1 5-7.3 6.7l-3.8 3 .3-6.3c.3-4.5 0-6.4-.9-6.8-1.2-.4-7.2 5.3-10.2 9.8-1.2 1.7-3.1 2.5-7.5 3.2-11 1.8-11 1.8-11.3-2.5-.2-2-.7-3.7-1.2-3.7-2.1 0-11.2 4.1-17.1 7.8-3.5 2.1-10.2 5.6-14.9 7.6-4.7 2.1-10.1 5.1-12 6.6-2 1.5-6 4-9 5.5s-9.1 6.2-13.5 10.5c-8.3 7.9-23.5 18.9-38.7 27.9-5.6 3.3-10.2 7-13 10.2-2.4 2.8-7.2 7.4-10.8 10.2-3.6 2.8-9.5 7.9-13.2 11.4-7.3 6.7-8 7-17.5 7.6-5.7.3-6.3.1-6.3-1.6 0-2.6 29.3-31.7 42.1-41.9 12.6-10 32-23.8 46.4-32.9 58.8-37.2 107.8-58.6 149.3-65.4 9.7-1.6 31.4-1.4 37.2.4zm472.5 25.3c5.5 5.6 8.5 8.9 6.8 7.3-1.8-1.6-3.3-2.4-3.3-1.9 0 1.3 5.5 6.6 6.1 5.9.3-.3 1.9.9 3.5 2.7 1.6 1.7 2.3 2.8 1.7 2.4-.7-.4-1.3-.3-1.3.2 0 1.2 2.5 3.3 3.2 2.7.3-.3 1.3.5 2.4 1.7 1 1.2 1.3 1.8.7 1.4-.7-.4-1.3-.3-1.3.3 0 1 1.9 2.6 3.2 2.6 1.4 0 1.7 1.2.3 1.2-.8 0-4.3-3.4-7.8-7.6-3.4-4.2-12.2-13.6-19.6-20.8-7.4-7.3-13.6-14-13.7-14.8-.3-2.2 7.2 4.4 19.1 16.7zM547 297.3c0 .2-1.2 1.4-2.7 2.8l-2.8 2.4 2.4-2.8c2.3-2.5 3.1-3.2 3.1-2.4zm55.6 5.6c-2.4 4.5-3.8 3.8-1.8-.8.9-2.2 2.1-3.6 2.5-3.2.5.5.1 2.3-.7 4zM437 299.4c0 .2-.8 1-1.7 1.7-1.6 1.3-1.7 1.2-.4-.4 1.3-1.6 2.1-2.1 2.1-1.3zm118.1 1.9c-1 .9-1.1.8-.5-.6.3-1 .9-1.5 1.2-1.2.3.3 0 1.1-.7 1.8zm61.3-.7c.9 2.4 0 3.2-4.3 3.6-3.8.3-3.8.3-2.4-1.9 1.3-1.9 2.6-2.7 5.4-3.2.4 0 1 .6 1.3 1.5zm-51.4-.3c0 .2-1.2 1.4-2.7 2.8l-2.8 2.4 2.4-2.8c2.3-2.5 3.1-3.2 3.1-2.4zm56.3 9.9c-3.5 8.3-5.3 11.3-5.3 9 0-1.5-8.7-1.6-12.4-.2l-2.6.9 2.3-4.3c2-4 2.6-4.4 7.2-5.1 2.8-.4 5.8-.8 6.7-.8 1.3-.1 1.7-.9 1.5-3.1-.2-2.6.2-3.1 2.8-3.7 1.7-.4 3.1-.7 3.2-.8.1 0-1.4 3.6-3.4 8.1zM435 306.3c0 .1-3 3.2-6.7 6.7l-6.8 6.5 6.5-6.8c6-6.2 7-7.2 7-6.4zm97 1.5c0 .5-.7 1.7-1.5 2.8-1.4 1.8-1.4 1.7-.4-.9 1.2-2.7 1.9-3.4 1.9-1.9zm67 .7c0 .8-.4 1.5-1 1.5-.5 0-.7-.7-.4-1.5.4-.8.8-1.5 1-1.5.2 0 .4.7.4 1.5zm-55 2.5c-.6 1.1-1.3 2-1.6 2-.2 0 0-.9.6-2s1.3-2 1.6-2c.2 0 0 .9-.6 2zm30.1 4.3c-1 .9-1.1.8-.5-.6.3-1 .9-1.5 1.2-1.2.3.3 0 1.1-.7 1.8zm-85.8 3.2c-.3.9-.8 1.4-1 1.1-.3-.3-.2-.9.2-1.5.9-1.6 1.5-1.3.8.4zm72.2-.5c.3.5.1 1-.4 1-.6 0-1.1-.5-1.1-1 0-.6.2-1 .4-1 .3 0 .8.4 1.1 1zM420 322.3c0 .2-1.5 1.6-3.2 3.3l-3.3 2.9 2.9-3.3c2.8-3 3.6-3.7 3.6-2.9zm62.1 2.4c1.3 1.6 1.2 1.7-.3.4-1-.7-1.8-1.5-1.8-1.7 0-.8.8-.3 2.1 1.3zm-69.1 5.7c0 .2-.8 1-1.7 1.7-1.6 1.3-1.7 1.2-.4-.4 1.3-1.6 2.1-2.1 2.1-1.3zm-4 5c0 .2-.8 1-1.7 1.7-1.6 1.3-1.7 1.2-.4-.4 1.3-1.6 2.1-2.1 2.1-1.3zm399.1 7.3c1.3 1.6 1.2 1.7-.3.4-1-.7-1.8-1.5-1.8-1.7 0-.8.8-.3 2.1 1.3zm3.9 5.3c1.2 1.6 1.9 3 1.6 3-.2 0-1.4-1.4-2.6-3-1.2-1.7-1.9-3-1.6-3 .2 0 1.4 1.3 2.6 3zm6.8 9.7c4.7 7.1 5.4 8.3 4.9 8.3-.2 0-2.5-3.2-5.1-7-2.5-3.9-4.4-7-4.1-7 .2 0 2.2 2.6 4.3 5.7zM216 367.3c0 .2-1.9 2.1-4.2 4.2l-4.3 4 4-4.3c3.6-3.9 4.5-4.7 4.5-3.9zm610 1.7c.6 1.1.8 2 .6 2-.3 0-1-.9-1.6-2-.6-1.1-.8-2-.6-2 .3 0 1 .9 1.6 2zm3 5c.6 1.1.8 2 .6 2-.3 0-1-.9-1.6-2-.6-1.1-.8-2-.6-2 .3 0 1 .9 1.6 2zm-622 1.3c0 .2-1.9 2.1-4.2 4.2l-4.3 4 4-4.3c3.6-3.9 4.5-4.7 4.5-3.9zm625 3.7c.6 1.1.8 2 .6 2-.3 0-1-.9-1.6-2-.6-1.1-.8-2-.6-2 .3 0 1 .9 1.6 2zm-166 75.5V527l-4.7-.1c-3.6-.1-4.2-.3-2.3-.8 1.9-.5 2.8-1.9 4.2-6.1 1.4-4.5 1.7-9.7 1.7-28.1.1-21.2 0-23-2.3-29.5-5-14.7-11.2-24.8-22.3-36.5-15.3-16-34.2-25.4-56.3-28-12.4-1.4-30.1-.7-38.3 1.6-5.6 1.5-5.9 1.5-9.3-.5-3.7-2.4-11-5.3-18.9-7.7-2.7-.8-6.4-2.8-8-4.4-1.7-1.6-3.9-2.9-4.8-2.9-.9 0-1.7-.5-1.7-1 0-.7 27.8-1 81.5-1H666v72.5zm-468-71.2c0 .2-1 1.2-2.2 2.3l-2.3 1.9 1.9-2.3c1.8-2.1 2.6-2.7 2.6-1.9zm-5 4.1c0 .2-.8 1-1.7 1.7-1.6 1.3-1.7 1.2-.4-.4 1.3-1.6 2.1-2.1 2.1-1.3zm646 5c0 1.2-.5.7-1.9-2.4-1.1-2.4-1.1-2.4.3-.6.9 1.1 1.6 2.4 1.6 3zm-658 3.1c0 .2-1 .9-2.2 1.5-2.2 1.1-2.2 1-.4-.4 2.1-1.7 2.6-1.9 2.6-1.1zm662 6c0 .5-.5.3-1-.5s-1-2-1-2.5c0-.6.5-.3 1 .5s1 1.9 1 2.5zm4.7 28.2c-.3 1-.5.4-.5-1.2 0-1.7.2-2.4.5-1.8.2.7.2 2.1 0 3zm-558 8c-.2 1.6-.4.3-.4-2.7s.2-4.3.4-2.8c.2 1.6.2 4 0 5.5zM77 437.4c0 .2-.8 1-1.7 1.7-1.6 1.3-1.7 1.2-.4-.4 1.3-1.6 2.1-2.1 2.1-1.3zm414.1 5.5c-3.7 7.2-9.9 23.5-11.2 29.6-1.6 7.4-1.6 31.2 0 38 2.8 12.3 4.2 15.4 7 15.8 1.4.2-2 .5-7.6.6l-10.3.1v-35.5c0-29.3.2-35.3 1.3-34.9 1.2.4 13.8-9.9 15.8-12.8.5-.8 5.8-4.5 6.7-4.7.1-.1-.7 1.7-1.7 3.8zM72 441.4c0 .2-.8 1-1.7 1.7-1.6 1.3-1.7 1.2-.4-.4 1.3-1.6 2.1-2.1 2.1-1.3zm163.1 34.3c1.3 1.6 1.2 1.7-.3.4-1-.7-1.8-1.5-1.8-1.7 0-.8.8-.3 2.1 1.3zm612.6 20.5c-.2 1.3-.4.3-.4-2.2s.2-3.5.4-2.3c.2 1.3.2 3.3 0 4.5zm-536-2c-.3.8-.6.5-.6-.6-.1-1.1.2-1.7.5-1.3.3.3.4 1.2.1 1.9zm536 11c-.2 1.3-.4.3-.4-2.2s.2-3.5.4-2.3c.2 1.3.2 3.3 0 4.5zm-548.7.1c0 .2-1.5 1.6-3.2 3.3l-3.3 2.9 2.9-3.3c2.8-3 3.6-3.7 3.6-2.9zm8 6.1c0 .2-.8 1-1.7 1.7-1.6 1.3-1.7 1.2-.4-.4 1.3-1.6 2.1-2.1 2.1-1.3zm-4 3c0 .2-.8 1-1.7 1.7-1.6 1.3-1.7 1.2-.4-.4 1.3-1.6 2.1-2.1 2.1-1.3zm-15.3 6.3c-.3 1-.5.2-.5-1.7s.2-2.7.5-1.8c.2 1 .2 2.6 0 3.5zm5.7-2.1c.3.8.2 1.2-.4.9-.6-.3-1-1-1-1.6 0-1.4.7-1.1 1.4.7zm5.6-1.2c0 .2-.8 1-1.7 1.7-1.6 1.3-1.7 1.2-.4-.4 1.3-1.6 2.1-2.1 2.1-1.3zm-10.6 9.2c.3.8.2 1.2-.4.9-.6-.3-1-1-1-1.6 0-1.4.7-1.1 1.4.7zm558.3 3.6c-.3.8-.6.5-.6-.6-.1-1.1.2-1.7.5-1.3.3.3.4 1.2.1 1.9zm-549.2 9c1.6 2.4 2.2 3.8 1.4 3.1-1.5-1.2-5.3-7.3-4.6-7.3.2 0 1.7 1.9 3.2 4.2zm544.8.8c-.9 1.6-4.2 5.4-7.2 8.2l-5.5 5.3 5.5-6c3.1-3.3 6.1-7 6.8-8.3.6-1.2 1.4-2.2 1.7-2.2.3 0-.3 1.3-1.3 3zm-168.9 6.1c-.9 1.5-2 1-2-1 0-1.5.3-1.7 1.3-.9.7.6 1 1.4.7 1.9zm-369.8 1.1l2.9 3.3-3.2-2.9c-3.1-2.8-3.8-3.6-3-3.6.2 0 1.6 1.5 3.3 3.2zm204.2.5c-1 .2-2.8.2-4 0-1.3-.2-.5-.4 1.7-.4 2.2-.1 3.2.1 2.3.4zm319.8 6.8c-1.1.8-2.5 1.5-3 1.5-.6-.1 0-.7 1.4-1.5 3.2-1.9 4-1.8 1.6 0zm-481.9 8.1c-.3.3-1.2.4-1.9.1-.8-.3-.5-.6.6-.6 1.1-.1 1.7.2 1.3.5zm209.1 8.5c-.3.8-.7.3-1.1-1-.4-1.7-.3-2.1.5-1.3.5.5.8 1.6.6 2.3zM534 577c0 2.7-.4 5-1 5-.5 0-1.1 3.5-1.3 7.7-.2 4.3-.2 2.2-.1-4.7.2-6.9.3-12.6.4-12.8 0-.1.5-.2 1-.2.6 0 1 2.2 1 5zm186.7 7.6c-.3.3-1.2.4-1.9.1-.8-.3-.5-.6.6-.6 1.1-.1 1.7.2 1.3.5zm-228.4 16.1c-1.3.2-3.3.2-4.5 0-1.3-.2-.3-.4 2.2-.4s3.5.2 2.3.4zm48 1c-1.3.2-3.5.2-5 0-1.6-.2-.5-.4 2.2-.4 2.8 0 4 .2 2.8.4zm41.2 6.9c.1 1.6 0 3.3-.4 3.9-.3.5-.8-1-1.1-3.5l-.5-4.5-2.8 4.7c-3.5 5.9-4.5 6.3-1.7.8 1.1-2.3 1.8-4.6 1.4-5.2-.4-.7-.3-.8.4-.4s1.2.2 1.2-.6c0-2.5 3.1 1.9 3.5 4.8zm-57.4-2.2c0 .3 1.3 1.9 2.9 3.5 1.7 1.6 3 3.5 3 4.3 0 1.6-6.4-6-6.6-8-.2-.7 0-1.2.3-.9.2.3.4.8.4 1.1zm8.6 1.8c-.3.8-.6.5-.6-.6-.1-1.1.2-1.7.5-1.3.3.3.4 1.2.1 1.9zm9.7 21.3c2.7 3.6 4.6 6.8 4.4 7.1-.3.3-3.4-3.4-6.9-8.1-3.5-4.7-6.7-8.5-7.1-8.5-.4 0-.8-.8-.8-1.8 0-1.9 2.3.6 10.4 11.3zm3.7 14.8c-1 .9-1.1.8-.5-.6.3-1 .9-1.5 1.2-1.2.3.3 0 1.1-.7 1.8zm-25.4 1.9c-.3.8-.6.5-.6-.6-.1-1.1.2-1.7.5-1.3.3.3.4 1.2.1 1.9zm9 23c-.3.8-.6.5-.6-.6-.1-1.1.2-1.7.5-1.3.3.3.4 1.2.1 1.9zm0 54.4c-.3.3-1.2.4-1.9.1-.8-.3-.5-.6.6-.6 1.1-.1 1.7.2 1.3.5z"/><path d="M493 570.1c0 1.3 6.1 9.9 7 9.9.4 0 3.9 4 7.8 8.8 6.8 8.6 11.7 13.7 9.6 10.1-1.9-3.3-22.9-29.8-23.6-29.9-.5 0-.8.5-.8 1.1zm-7 9.6c0 1.8 10.7 16 15.9 21.4.9.8 4 4.5 7 8.2 3 3.7 5.6 6.5 5.8 6.3.8-.8-4.4-8.5-10-14.6-3.2-3.6-8.3-9.7-11.3-13.7-5.4-7.1-7.4-9.2-7.4-7.6zm57 .8c0 1.6 3.9 19.7 4.7 21.5.7 1.6.9 3 1.7 10.5.8 6.8 1.1 8.3 1.8 9 .3.3.4 2.8.1 5.5-.6 5.9.6 6.4 2.9 1.2.9-2 2.8-6.5 4.3-9.8l2.7-6.2-2.8-4.3c-1.5-2.4-5.6-9.8-9.1-16.4-3.4-6.6-6.3-11.5-6.3-11zm-49.8 2.3c3.9 5.3 11.3 14 11.6 13.7.3-.2-1.3-3.8-3.4-8-3.5-6.6-4.2-7.5-6.7-7.5s-2.7.2-1.5 1.8zm110.4 7.7c-3.1 4.2-6 7.4-6.4 7.1-.4-.3-.9.4-.9 1.5-.3 3.3 1.3 2.1 7.4-5.9 7-9.1 7.7-10.2 6.5-10.2-.5 0-3.5 3.4-6.6 7.5zm7.6-3.3c-1.7 2.4-5.4 7-8.2 10.3-5 5.8-8.1 10.3-6.3 9.2.4-.3.9.6.9 1.9.1 1.4-.2 2.1-.8 1.8-.6-.4-.8.2-.3 1.5.3 1.2.2 2.1-.4 2.1-.5 0-1.2.8-1.5 1.7-.2 1-.2-.5 0-3.2l.5-5-2 2.5c-1.2 1.4-5.7 7.8-10.2 14.4l-8.2 11.8 1.7 3.5 1.7 3.6 2.5-3.4c5.8-7.9 10.5-15.9 9.9-16.8-.3-.6 0-.9.7-.6.9.4 2.2-.9 3.6-3.2 1.1-2.1 3.1-5 4.4-6.4 2.2-2.5 5.3-6.5 17.5-22.2 2.9-3.7 5.3-6.9 5.3-7.2 0-.3-1.7-.5-3.8-.5-3.4 0-4.2.5-7 4.2zm9.2 2.5c-2.6 3.6-8 10.5-11.9 15.2-3.9 4.7-9 11.2-11.4 14.4-3.6 5-4 6-3 8 .9 1.8.9 2-.2.9-.7-.6-1.6-1.2-2-1.2-.4 0-3.4 4.3-6.8 9.5L579 646l3.1 6c1.7 3.3 2.9 6.5 2.7 7.1-.2.5-1.6-2-3.2-5.6l-2.9-6.6-2.2 3.3c-1.2 1.8-3.9 6.3-5.9 10l-3.7 6.7 2.3 3.3c1.2 1.8 2.9 4.1 3.8 5.1 1.4 1.8 1.5 1.8 2.2-.5.6-1.7.7-1.5.3.9-.2 1.8-.1 3.3.4 3.3 1.2 0 9.1-14.4 9.1-16.5 0-.8.5-1.5 1-1.5.6 0 1.9-1.4 2.9-3.1 1.9-3.1 1.9-3.2-.1-6.8-1.2-2.2-1.4-2.8-.4-1.7.9 1.1 1.6 2.3 1.6 2.8 0 2 2.1.4 4.9-3.6 1.6-2.5 4-5.9 5.3-7.6l2.3-3.2-3.5-2.8c-1.9-1.6-3.2-3.2-2.8-3.5.4-.4 1.9.5 3.5 1.9 1.5 1.4 3.1 2.6 3.5 2.6.3 0 2.4-2.4 4.5-5.2 2.1-2.9 4.8-6.6 6-8.3 5.2-6.9 12.3-18.1 12.3-19.3 0-.6.4-1.2.8-1.2.7 0 11.2-17.2 11.2-18.4 0-.3-.6-.6-1.4-.6-1.7 0-9.7 11-11.6 16-1.9 4.9-7.9 17-8.5 17-.5 0 .3-2.1 3.4-9.3 2.4-5.7 2.5-6.1.9-5-.7.4-1.6.8-2 .8-.3 0-1 .4-1.5.9-.5.6-.2.6.7.1.8-.5.5.3-.8 1.7-1.2 1.3-2.8 2.5-3.6 2.5-.7 0 2.4-4.7 7-10.4 7.4-9.1 9.5-12.3 8-12.3-.2 0-3.3 3.7-6.9 8.2-3.6 4.6-9 11-12.2 14.3-5.7 6-4 3.7 14.8-19.8 2.5-3.1 3.3-4.7 2.4-4.7-.9 0-3.7 3-6.3 6.7zm-49.1 77.8c-.3.9-.8 1.4-1 1.1-.3-.3-.2-.9.2-1.5.9-1.6 1.5-1.3.8.4zm5.4 2.7c-.3.8-.6.5-.6-.6-.1-1.1.2-1.7.5-1.3.3.3.4 1.2.1 1.9zm59.6-79.2c-2.4 4.4-4 8-3.5 7.9.7 0 11.3-13.4 12-15.1.2-.4-.7-.8-2-.8-1.9 0-3.1 1.6-6.5 8zm-77.1 15.5c1.1 2 2.3 3.4 2.5 3.1.5-.5-3.5-6.6-4.2-6.6-.3 0 .5 1.6 1.7 3.5z"/><path d="M614.9 605.7c-1.3 1.6-1.2 1.7.4.4.9-.7 1.7-1.5 1.7-1.7 0-.8-.8-.3-2.1 1.3zm-97.9 9.5c-.1 2.3 12.9 21.8 15.2 22.6 2 .8-.7-5.5-4.3-10.3-5.3-6.8-10.8-13.1-10.9-12.3zm-5.4 1.8c1.2 2.5 10.7 15 11.2 14.6.6-.6-4.3-7.7-8.3-12.1-2-2.2-3.3-3.3-2.9-2.5zm50.7 4.7c-.6 1.6-3 7.2-5.2 12.7l-4.1 9.8 2.9 4.5 3 4.5 2.6-5.1c1.4-2.8 2.8-5.1 3.1-5.1.3 0-.8 2.5-2.5 5.7-2.4 4.3-2.8 5.9-1.9 7 .8 1.1 2.3-.9 7-9.3l5.9-10.7-4-8.4c-2.2-4.5-4.4-8.3-4.9-8.3-.4 0-1.3 1.2-1.9 2.7zM567 640c-.6 1.1-1.3 2-1.6 2-.2 0 0-.9.6-2s1.3-2 1.6-2c.2 0 0 .9-.6 2zm43.1-8.5c-2.3 3.1-3.9 6-3.6 6.5.4.6 1.1.8 1.6.5.9-.6 7.1-12.5 6.5-12.5-.2 0-2.2 2.5-4.5 5.5zm-76.1 6.7c0 2.6 5.6 11.8 7.1 11.8 3 0 1.5-3.7-5.1-12l-2-2.5v2.7zm-6-1c0 1.4 3.4 7.8 4.2 7.8.4 0 .8.7.8 1.5 0 1.9 3.2 8.5 4.1 8.5.3 0 1.2-.7 1.9-1.5.9-1.1.6-2.1-1.7-5-1.5-1.9-3.1-3.5-3.5-3.5-.5 0-.8-.6-.8-1.3 0-1.3-4.9-7.7-5-6.5zm43.6 4.1c-1 1.7-3.6 6.3-5.7 10.1-3.7 6.8-3.7 7.1-2.1 9.8.9 1.5 1.9 2.8 2.2 2.8 1.2 0 6.1-9.1 5.4-10.1-.5-.8-.3-.9.6-.4 1 .6 1.2.4.6-1.1-.4-1-.4-1.5 0-1.1.5.4 1.8-.9 3-2.9 2.1-3.5 2.2-3.8.6-7-.8-1.9-1.8-3.4-2.1-3.4-.3 0-1.4 1.5-2.5 3.3zm26.8 5.9l-5.7 8.2 4.9 4.4 4.9 4.5.8-4.4c.5-2.4 1.4-7.1 2-10.4 1.3-6.3 1.1-10.5-.3-10.5-.5 0-3.4 3.7-6.6 8.2zm-44.8 4.3c.4 2.2.7 4.8.6 5.7-.1 2.4.5 2.3 2.4-.7 1.2-1.8 1.3-2.7.4-3.7-.6-.7-1.8-2.2-2.6-3.3-1.4-1.9-1.5-1.7-.8 2zm-11-1c-.6 1.7.2 4.5 1.4 4.5s2-2.8 1.4-4.5c-.4-.8-1-1.5-1.4-1.5-.4 0-1 .7-1.4 1.5zm3.4 4.6c-1.3 2.4-.4 4.1 1 1.9 1-1.6 1.3-4 .5-4-.2 0-.9.9-1.5 2.1zm-7 .4c-.7.8-.8 2-.4 2.7.5.7.7 2.2.6 3.3-.2 1.7.1 1.5 2.2-.9 2-2.4 2.2-3.2 1.3-4.8-1.4-2.2-2.1-2.3-3.7-.3zm9.3 1.9c-.8 1.4-.8 2.6 0 4.3 2.1 4.7 3.4 2 1.8-3.7-.7-2.4-.8-2.4-1.8-.6zm8.3 1.2c-1.7 2.4-1.6 5.4.1 5.4.4 0 1.6-1.3 2.5-2.9 1.3-2.4 1.4-3.2.3-4.1-.9-.8-1.7-.4-2.9 1.6zm32.6 1.9L587 664l4 6c4.1 6 9 11.3 9.8 10.5.3-.2.6-2.1.9-4.2.2-2.1.5-5.4.7-7.3.4-3.3 0-3.8-4.5-6.8-2.7-1.8-4.9-3.7-4.9-4.2 0-2-1.5-.9-3.8 2.5zm-54.6-1.7c-.9 1.5.3 8.2 1.5 8.2 1.8 0 2-2.7.6-6.1-.8-2.1-1.6-2.9-2.1-2.1zm7.9 3.4c-1.7 2.9-1.7 3.1-.1 1.9 2.1-1.7 4-5.1 2.9-5.1-.5 0-1.7 1.5-2.8 3.2zm16.9 1c-1.6 3.5-1.6 3.8.1 6.4l1.7 2.7 2-3.2c2-3.1 2-3.1 0-6.3l-2-3.2-1.8 3.6zM544 665c-2.1 2.9-2.1 6.8 0 5.5 2-1.2 3.2.7 1.3 2-1.4 1.1-1.6 1.6-.6 2.6s1.6.9 2.8-.7c.8-1 1.5-2.6 1.5-3.4 0-1.2.2-1.3.9-.1.6.9 1.1 1 1.5.2.7-1.1-.5-1.5-3.1-1.2-1.6.2-1.6-.4-.1-2.9 1-1.6 1-2.3-.3-3.6-1.5-1.4-1.8-1.3-3.9 1.6zm39 5.7c-1.6 2.6-2.8 5.4-2.5 6.1.3.7.1 1.1-.4.8-.8-.6-2.1 1.5-2.1 3.5 0 .5 1.2 1.6 2.6 2.5 2.2 1.5 2.7 1.5 3.5.3.5-.8.6-2.1.3-2.9-.4-1.1-.2-1.2.6-.4.9.9.9 1.7 0 3.4-1.1 2-.9 2.5 1.1 4.1 1.3 1 2.7 1.9 3.1 1.9 1.4 0 2-8.2.7-11.2l-1.2-3-1.4 2.4c-1 1.5-1.2 1.6-.7.3.5-1.1.8-3.8.8-5.9 0-3.4.1-3.6.9-1.5 1.9 5.1 4 8.8 4.7 8.4.5-.3.6.3.4 1.2-.3 1.1.9 3.5 2.8 5.8l3.3 3.9.6-3.4c.5-3.1.1-3.9-3.7-7.5-2.3-2.2-5.1-5.9-6.3-8.2-1.1-2.3-2.5-4.4-3.1-4.8-.5-.3-2.3 1.6-4 4.2zm-46-1.6c0 .5.5.7 1 .4.6-.3 1-.8 1-1.1 0-.2-.4-.4-1-.4-.5 0-1 .5-1 1.1zm18.7-.5c-1.1 1.2-.8 3.9.8 6 1.3 1.6 1.6 1.7 2.5.4 1.3-2 1.3-2.4-.8-5-.9-1.2-2.1-1.8-2.5-1.4zm8.3 3.5c-1.9 4.5.3 6.2 2.5 2 1.5-3 1.3-5.1-.4-5.1-.5 0-1.4 1.4-2.1 3.1zm-26.8-.1c-2 1.9-2.9 4-1.7 4 1.5 0 5.5-3.4 5.5-4.6 0-2-1.3-1.7-3.8.6zm30.4 1.6c-.3.9-.3 2.1.1 2.6.3.6.1.8-.4.5-2.7-1.7-1.8 2.3 1.3 5.9 2.8 3.2 3.5 3.6 4.4 2.4.5-.8.8-2.1.5-2.8-.2-.6 0-1.2.6-1.2.5 0-.4-2-2.1-4.5-1.7-2.5-3.3-4.5-3.4-4.5-.2 0-.7.7-1 1.6zm-29.8 3.2c-1.8 1.1-2.8 2.6-2.8 4v2.2l4.1-2c2.6-1.4 3.9-2.7 3.7-3.7-.4-2.3-1.8-2.4-5-.5zm11 .6c-2.1 1.7-2.5 2.7-2.1 5.3.5 3.1.6 3.2 3 1.6 1.3-.9 2.2-2.2 1.9-2.9-.3-.8 0-1.1 1-.7 1.7.6 1.8.2.1-3l-1.3-2.4-2.6 2.1z"/><path d="M560 677.5c-1.1 1.3-1.1 1.9.2 3.2 1.5 1.4 1.7 1.3 2.7-.5 1.5-2.7-1-5-2.9-2.7zm-3.2 4.2c-1 1.1-1.4 2.8-1.1 4.5l.5 2.8 2-2.6c1.5-1.9 1.8-3.1 1.1-4.5-.8-2-.9-2-2.5-.2zm6.2.3c-.9 1.7-.6 2.7 1.6 5.5 2.8 3.8 4.2 4.3 5 2.1.5-1.2-4.1-9.6-5.2-9.6-.2 0-.8.9-1.4 2zm-19.4.4c.3.7-2 3.5-5.1 6.3-4 3.7-5.5 5.8-5.5 7.7 0 2.7 0 2.7 2.4.9 1.4-1 2.6-2.7 2.8-3.8.2-1.1 2-3.1 4.1-4.4 3.9-2.5 5.1-6.4 2.3-7.4-.9-.4-1.3-.1-1 .7zm-6 1.9c-1.6 1.3-2.7 2.9-2.5 3.6.3.7 1.8-.2 3.9-2.4 3.8-3.9 3-4.7-1.4-1.2zm38.1-.6c-2.1 2 .7 9.3 3.5 9.3 1.7 0 1.6-3.7-.3-6.6-2.2-3.7-2.3-3.7-3.2-2.7zm15.9 3.5c-1 3.8-.7 4.4 2.9 6.1 2 .9 3.8 1.7 4 1.7 1.4 0 0-3-2.9-6.3-3.2-3.6-3.4-3.7-4-1.5zm-41.4.8c-.7 1.2-1.7 1.8-2.2 1.5-.9-.5-.5 5.4.5 6.3 1.3 1.3 4.5-3.3 4.5-6.5 0-3.8-.9-4.2-2.8-1.3zm8.6.8c-4.5 7.2-7.9 14.3-7.2 15.3.9 1.6 2.6.9 2-.7-.5-1.3-.3-1.4.7-.6 1 .8 2.7-.2 7.1-4.2l5.9-5.3-2.8-3.7c-1.5-2-3-3.6-3.4-3.6-.3 0-1.4 1.2-2.3 2.8zm-16.6 2.4c-.8.8-.9 1.5-.1 2.5.8.9.7 1.4-.5 1.9-.9.3-1.3 1-1 1.5.3.5-.1.6-.8.4-2.1-.8-4.7 1.6-6.8 6.3-1.1 2.3-1.6 4.2-1.3 4.2 1.6 0 10.2-5.4 9.7-6.2-.3-.5-.2-.8.3-.7 3.7.9 5.9-5.1 2.6-7-1.4-.8-1.5-1.2-.4-2.5 1.5-1.8.1-2.2-1.7-.4zm28.3.8c-.6 2 .9 5 2.4 5 1 0 .1-5.9-.9-6.5-.5-.3-1.2.4-1.5 1.5zm10.9.4c-1 2.5 3.1 6.5 4.8 4.8 1-1 .7-1.8-1.4-3.9-2.5-2.4-2.8-2.5-3.4-.9zm-15.2 4.9l-2.2 2.3 2.8 3.3 2.7 3.3 1.9-2.1c1.9-2.1 1.5-5.8-.5-4.5-.7.4-1 .3-.6-.2.3-.5 0-1.7-.7-2.6-1.2-1.6-1.4-1.6-3.4.5zm8.8-1.4c0 .6.5 1.3 1 1.6.6.3 1-.1 1-.9 0-.9-.4-1.6-1-1.6-.5 0-1 .4-1 .9zm17.5.7c3.4 2.6 5.5 3.6 5.5 2.5 0-1.3-4.1-4.1-6-4.1-1.1.1-1 .4.5 1.6zm-5 1.4c-.4.7-.1 1.6.6 2.1 1.7 1 2.6-.8 1.1-2.3-.6-.6-1.2-.6-1.7.2zm-9.9 1.6c-.4 1 .1 2.2 1.1 3 2.3 1.7 2.8 1.7 4.2 0 1-1.1.7-1.7-1.1-3-2.8-2-3.4-2-4.2 0zm14.5.6c0 1.9 5.9 6.4 5.9 4.5 0-.8-.8-2.1-1.7-2.9-3-2.5-4.3-3-4.2-1.6zm-31.9 3.5l-3.3 2.8 3 2.9 3.1 3 2.5-2.4c3-2.9 3-2.8.2-6.3l-2.2-2.8-3.3 2.8zm24.1.2c-1.4 2.2-.9 2.8 4.4 5.5 4.1 2 4.2 2 3.6-.4-.3-1.1-.9-2-1.4-2-.5 0-.6-.7-.3-1.5.4-1-.3-1.8-2.1-2.5-1.4-.5-2.7-1-2.8-1-.1 0-.8.9-1.4 1.9zm-11.1 2.2c-1.2 1.8-1.1 2.3.5 3.4 3.1 2.3 4.5-.4 2.1-3.8-1.2-1.6-1.4-1.6-2.6.4zm-24.2 1c0 .5.5.7 1 .4.6-.3 1-.8 1-1.1 0-.2-.4-.4-1-.4-.5 0-1 .5-1 1.1zm44.7.9c.3 1.1.9 2 1.3 2 .5 0 .6-.9.3-2s-.9-2-1.3-2c-.5 0-.6.9-.3 2zm-38.7-.1c0 1.2 4.4 5.4 5.4 5.2 1.2-.2.6-1.3-2.4-3.7-1.6-1.4-3-2.1-3-1.5zM299 307.7c-.7 2.1-2 4.7-2.9 5.7-1.2 1.4-1.3 2-.3 2.3.7.3 1.2 2.1 1.2 4.4 0 2.1.5 3.9 1 3.9.6 0 1-.5 1-1 0-.6.4-1 .9-1s1.2 1.9 1.6 4.2c1.3 8.8 1.6 9.7 3.1 9.1 1-.4 1.4.3 1.4 2.8 0 1.9.9 4.5 2 5.9 1.1 1.4 2 3.1 2 3.7 0 1.9 2.7 1.6 3.9-.5 1-1.5 1.3-1.4 3.8 1.5 1.6 1.7 4.6 5.7 6.8 8.9 4.1 5.8 10.1 11.2 11.2 10 .4-.3-.6-1.9-2-3.4-1.5-1.6-2.7-3.5-2.7-4.3 0-.9-1.2-2.6-2.6-4-1.5-1.3-3.8-4.9-5.1-7.9-3-6.8-5.3-9.6-6.4-7.8-.5.8-1.1.4-1.8-1.3-.5-1.5-1.7-2.9-2.5-3.2-1-.4-1.6-1.8-1.6-3.6 0-2-1-3.9-2.9-5.8-3.5-3.4-6.1-10.9-6.1-17.5 0-5.7-1.4-6.2-3-1.1zm-13.6 6.8c-1.7.7-5.9 3.8-9.4 6.9-6.4 5.7-8.5 6.6-5.6 2.4 1.9-2.6 2-3.8.5-3.8-2 0-6.2 4-9.3 8.8-1.7 2.5-4.1 5.1-5.3 5.8-1.3.6-3.2 1.9-4.3 2.9-2.3 2.1-1.2 3.5 2.8 3.5 1.3 0 2.2.6 2.2 1.5 0 2.7 2.8 1.6 6.5-2.8 2-2.3 4.3-5.3 5.2-6.7.8-1.4 3.7-3.8 6.5-5.2 4.8-2.6 5.2-2.6 6.4-1 2.1 2.8 4.4 7.9 4.4 9.8 0 2.6 3.1 10.4 4.1 10.4 1.7 0 2.2-5.5.8-10.4-.7-2.8-1.2-6.6-1.1-8.4.1-1.9-.2-4.1-.7-4.9-.4-.9-.5-3.2 0-5.2 1-4.5.2-5.3-3.7-3.6zm8.1 36.2c1.3 5.3 2.3 12.7 1.8 14.1-.3.7.3 2.2 1.3 3.3 1.5 1.7 1.6 2.4.6 5.1-1.5 4.1-.6 4.9 2 1.8l2-2.5-.6 2.5c-1.3 5.2-1.9 14-1 14 .5 0 1.7-2.1 2.7-4.8 3.5-9.7 5.4-9.8 3.7-.2-.6 3.4-.8 6.5-.5 6.9.9.8 3.5-2.9 3.5-5.1 0-3.9 2-1.5 2.1 2.4.2 9 .6 10.2 3.3 9.2 1.3-.5 1.5-1.4 1-4.1l-.6-3.4 3.6.6c4.6.9 4.6-.2.1-6.1-1.9-2.5-3.5-5-3.5-5.6 0-1.8-12.7-20.3-14.9-21.6-1.2-.7-2.8-3-3.7-5.2-1.8-4.6-4-5.5-2.9-1.3zm174.1 32.8c-2.3 3.5-2 4.9 1.9 8.4 5.6 4.8 11.6 3.5 12.9-2.9.5-2.6.1-3.5-2.2-5.5-3.9-3.4-10.3-3.5-12.6 0zm10.4 5.1c0 .8-.5 1.2-1 .9-.6-.4-.8-1.1-.5-1.6.9-1.4 1.5-1.1 1.5.7zm-203.5 72.3c-4.4 1.5-13.6 4.3-20.5 6.1-11.8 3.1-16.2 5.1-14.7 6.6 1.2 1.2 23.4-5.8 38.7-12.3.8-.3 1.7-.7 2-.7.3-.1 1.4-.7 2.5-1.3 3.2-2 .6-1.4-8 1.6zm-23.3.1c-7.8.4-14.5 1-14.8 1.3-.4.3-.4 1.3-.1 2.2.9 2.2 7.1 1.9 20.5-.9 10.2-2.1 15.5-3.8 10.6-3.4-1 0-8.3.4-16.2.8zm18.3 8.3c-13.4 6.1-16.1 7.7-16.9 10-1.6 4.3.1 4.3 5-.3 2.8-2.6 8.7-6.1 15.3-9.2 5.8-2.7 12-5.5 13.6-6.3 2.3-1 2.5-1.4 1-1.4-1.1 0-9.2 3.2-18 7.2zm14.9-.1c-8.3 5.8-10.3 7.8-12.5 12-2.9 5.7-.2 4.7 5.1-1.8 2.5-3.1 6.8-7.2 9.5-9.2 6.8-4.8 7.2-5.2 5.4-5.2-.9 0-4.2 1.9-7.5 4.2zM766 297.3c0 .3 5.1 5.1 11.3 10.8 6.1 5.7 9.2 8.1 6.7 5.5-5-5.3-18-17.1-18-16.3zm29.5 29.7c1 1.1 2 2 2.3 2 .3 0-.3-.9-1.3-2s-2-2-2.3-2c-.3 0 .3.9 1.3 2zM693.4 226.2l-2.9 3.3 3.3-2.9c3-2.8 3.7-3.6 2.9-3.6-.2 0-1.6 1.5-3.3 3.2zm10.5 7.5c-1.3 1.6-1.2 1.7.4.4.9-.7 1.7-1.5 1.7-1.7 0-.8-.8-.3-2.1 1.3zm36.4-.2c0 .7.6 1.1 1.4.8.7-.3 1.3-.6 1.3-.8 0-.2-.6-.5-1.3-.8-.8-.3-1.4.1-1.4.8zm-382.4 7s-.3 1.1-.5 2.4l-.4 2.5 2.5-2.4c1.4-1.3 2.5-2.5 2.5-2.6 0-.2-3.7-.1-4.1.1zm342.2 11.9c.2.2 1.5.9 2.9 1.5 2.4 1.1 2.4 1.1.6-.3-1.6-1.3-4.9-2.4-3.5-1.2zm5.9 3c0 .2.7.7 1.6 1 .8.3 1.2.2.9-.4-.6-1-2.5-1.4-2.5-.6zm-354.3 5c-.4 1-.1 1.3.8.9.8-.3 1.2-.9.9-1.4-.7-1.2-1.1-1.1-1.7.5zm388.3 16c0 .2 1.4 1.4 3 2.6 1.7 1.2 3 1.9 3 1.6 0-.2-1.3-1.4-3-2.6-1.6-1.2-3-1.9-3-1.6zm9 6.8c0 .3 1.7 1.8 3.8 3.4 2 1.5 3.1 2.1 2.5 1.3-.7-.9-1.1-1.8-.8-2.1.3-.3-.2-1.1-1.2-1.9-1.1-.9-1.4-1-.9-.2.9 1.6-.6 1.7-2.2.1-.7-.7-1.2-.9-1.2-.6zm11 9.2c0 .2.8 1 1.8 1.7 1.5 1.3 1.6 1.2.3-.4s-2.1-2.1-2.1-1.3zm-412.1 24.3c-1.3 1.6-1.2 1.7.4.4.9-.7 1.7-1.5 1.7-1.7 0-.8-.8-.3-2.1 1.3zm486.9 264.5c-1.6.5-2.8 1.4-2.8 1.9s-1.2 1.6-2.6 2.5c-2.2 1.5-2.7 1.5-3.4.4-1.2-2-11.8-1.3-14.5 1-1.1.9-3.1 7.1-4.9 15.2-.4 1.6-1.1 2.8-1.7 2.8-.7 0-.9-1-.4-2.8 1.8-6.9 2.2-11.8 1.2-12.8-.8-.8-4.7 1.9-4.7 3.3 0 1.7-1.5 1.6-3.2 0-1.6-1.7-5.8-2.8-5.8-1.6 0 .5-.6.9-1.3.9-.8 0-1.9 1-2.6 2.2-.6 1.3-.9 1.5-.7.5.4-1.3-.1-1.7-2-1.7-2.7 0-4 2.3-5.4 10-.5 2.5-1.3 5.8-1.8 7.5-1 2.8-1.2 2.7-1.6-.8-.1-.6-.8-1.1-1.5-.9-1 .2-1.2-.3-.6-2 .4-1.3.8-3.3.9-4.6 0-1.2.4-2.2.8-2.2.3 0 .4-.9.1-2-.3-1.1-.8-2-1.2-2-1.3 0-4.4 2.7-4.8 4.1-.1.8-1 4.7-2 8.6-.9 4-2.1 7.3-2.6 7.3s-.6-1.2-.2-2.8c.4-1.5.9-4.5 1.2-6.7.2-2.1.7-4.3.9-4.7 1.1-1.7-.7-2.6-3.1-1.5-1.8.9-2.5 2-2.6 4.2l-.1 3-1.2-2.8c-.7-1.5-1.5-2.4-1.9-2.1-.4.4-.7.2-.7-.5 0-1.5-7.3-.8-7.8.8-.2.6-.8.9-1.3.6-.5-.3-1.9 0-3.1.7-1.3.7-2.5 1.3-2.8 1.3-.3 0-2.7 1.1-5.4 2.3-3.7 1.7-5.2 1.9-6.2 1.1-1-.8-3-.7-7.9.6-3.6 1-6.5 2.2-6.5 2.7s-.4.6-1 .3c-.5-.3-1-.2-1 .2 0 .5-1.4 1-3.1 1.1-1.7.1-4.7 1.1-6.8 2.1-2.6 1.4-4.2 1.6-5.4.9-1.2-.6-3-.5-5.5.3-2 .7-3.9 1.3-4.2 1.4-.3 0-2 .6-3.7 1.4-3.2 1.3-4.4 3.7-5.9 11.6-1.1 5.8-1.6 7.5-2.5 7.5-.5 0-.7-1-.4-2.3 1.5-6.4 2.1-11.7 1.5-12.8-1.1-1.7-4.1-.3-4.7 2.1-.7 2.5-.8 2.5-3.2.1-2.3-2.3-6.7-2-8.6.5-1.1 1.5-1.5 1.6-2.8.5-2.5-2-5.6-.3-7.3 4-1.8 4.4-3.4 5.1-3.4 1.6 0-3.3-.9-3.8-3.5-2.1-1.4.9-3 4-4.5 8.7-1.2 3.9-2.6 8.1-3 9.3-1 2.6.6 5.4 3 5.4 1.8 0 2.6-1.7 2-4.5-.1-.5.7-.2 1.8.8 2.3 2.1 4.2 2.2 4.2.2 0-1.2.9-1.4 3.6-1.1 2.9.4 3.7.1 4.1-1.4.4-1.5.9-1.7 2.3-1 1 .6 3 1 4.3 1 2.6 0 7.7-3.8 7.7-5.8 0-1.7 1-1.5 2.9.5 1.6 1.8 6.1 2.6 6.1 1.1 0-.4.7-.8 1.5-.8s1.5-.7 1.5-1.5c0-2 1-1.9 2.5.2 1 1.4 1.6 1.5 2.7.5 2.2-1.8 9.9-4.4 13.1-4.4 1.5.1 2.8-.5 2.8-1.1 1-10.4 1.8-13.3 4.1-15.3 1.2-1.1 1.8-1.4 1.4-.7-.3.7-.9 3.6-1.2 6.5-.3 2.9-.8 5.6-1.1 6.1-.3.5 3.7 2.7 5.1 2.7.2 0 .6-2.4 1-5.3.4-2.8.9-6.1 1-7.2.2-1.1.4-2.7.5-3.5 0-.8 1-2.1 2.1-2.8 1.8-1.1 2-1 2 .9 0 1.1-.4 1.8-.9 1.4-.5-.3-1 .7-1.1 2.2-.1 1.6-.2 4.5-.3 6.7-.1 2.8.3 4.2 1.6 5 1.4.9 2 .8 2.7-.4.5-.8 1-1.1 1-.7 0 .4 1 .2 2.3-.5 1.2-.7 2.4-1.3 2.7-1.3 2-.2 4.1-2.5 3.8-4.1-.4-2.3-2.5-2.5-5.5-.6-2.2 1.4-2.3 1.3-2.1-1.2.1-1.4.8-2.6 1.5-2.6 2.3 0 6.3-2.3 6.3-3.6 0-2-3.3-3.4-5.3-2.3-1.3.8-1.7.6-1.7-.7 0-1 .3-1.4.7-1.1.3.4 1.2.2 2-.4.7-.6 1.3-.8 1.3-.3s.4.4.8-.2c.4-.6 1.7-1.4 2.8-1.8 1.7-.5 2.3-.2 2.7 1.6.5 1.8.9 2 1.9 1 1.9-1.9 3-1.4 2.3.9-.4 1.1-.9 4.3-1.1 6.9-.3 4.2-.1 5 1.7 5.5 2.6.8 3.3.2 3.5-3.3.3-4.8.4-5.2 1.4-5.2.6 0 1 .5 1 1.1 0 1.9 3.3 4.4 6.2 4.5 1.5.1 2.8-.3 2.8-.9 0-.6.3-.7.7-.4.9.9 4.3-2.2 4.3-4 0-.7.5-1.3 1-1.3.6 0 1 .5 1 1 0 .6 1 1.4 2.3 1.9 3.3 1.3 7.4-1.2 8.2-5.1l.7-3.2 1.5 2.7c1 2 2.1 2.7 4.2 2.7 2.6 0 5.9-2.4 5.4-3.9-.2-.3 0-1.5.4-2.6.6-1.9.6-1.9 1.4.1 1 3 7 3.6 10.1 1.2 1.3-1 1.9-1.8 1.5-1.8-.5 0-.1-.7.8-1.6 1-1.1 1.9-1.3 2.8-.6 3.3 2.6 9.7 1.5 9.7-1.8 0-1.3 1.7-1.3 2.5-.1.3.6 1.4.9 2.5.8 1.4-.1 2.2-1.1 2.6-3.4.5-2.9.8-3.1 2.7-2 1.2.7 2.7 1.8 3.5 2.4 1.6 1.6 2.9 1.6 3.7.3.4-.6 1.1-.8 1.6-.4.5.3 2.1-.2 3.6-1.1 1.7-1.2 2.3-1.3 1.8-.4-.5.8.7-.2 2.6-2.1 1.9-1.9 3.2-3.5 2.9-3.6-.3 0 .1-.8.8-1.6.9-1.1 1-2.3.2-4.2-.8-2.2-1.5-2.6-5.2-2.6-3.9 0-4-.1-2.2-1.4 1-.8 2.1-1 2.2-.5.5 1.4 2 1.1 4-.9 2.1-2.1 2.2-4 .2-5.2-1.8-1.1-1.7-1.1-5.2.2zm-13.3 9.8c.3.6-.1.7-.9.4-1.8-.7-2.1-1.4-.7-1.4.6 0 1.3.4 1.6 1zm7.5 2c0 .5 1.6 1 3.5 1 3.8 0 4.2.4 2.1 2.5-1.2 1.2-1.6 1.2-2.5.1-1.7-2-4.4-1.3-5.8 1.5-.7 1.3-1.3 1.8-1.3 1.1s-.4-1-1-.7c-.5.3-1-.3-1-1.5s.5-1.8 1-1.5c.6.3 1 0 1-.9 0-1.3 1.3-2.3 3.3-2.5.4-.1.7.3.7.9zm-15.3 4.2c-.3.8-.6.5-.6-.6-.1-1.1.2-1.7.5-1.3.3.3.4 1.2.1 1.9zm-19.2 3.2c-.4 1.7-.7 3.7-.8 4.3 0 .7-.4 1.3-.9 1.3s-.7.4-.4.9c.3.5-.1 1.4-.8 2-1.1 1-1.6.8-2.1-.9-.9-2.7.2-9 1.5-9 .6 0 .9-.3.9-.8-.3-1.7.2-2.1 1.7-1.5 1.2.4 1.4 1.3.9 3.7zm18.2 1.8c-.3.8-.6.5-.6-.6-.1-1.1.2-1.7.5-1.3.3.3.4 1.2.1 1.9zm-57.1 6.5c-.9 6.8-3.6 12.7-4.9 10.6-1.1-1.7.4-9.7 2-11.4 2.5-2.5 3.3-2.3 2.9.8zm-67.9 17.5c-.3.7-.5.2-.5-1.2s.2-1.9.5-1.3c.2.7.2 1.9 0 2.5zm7.3-2.3c0 .5-.7 1.1-1.4 1.4-1 .4-1.3.1-.9-.9.6-1.5 2.3-1.9 2.3-.5zm5.4.6c-.4.8-.8 1.5-1 1.5-.2 0-.4-.7-.4-1.5s.4-1.5 1-1.5c.5 0 .7.7.4 1.5zm-1.3 4.2c0 .5.2 1.6.4 2.5.2 1.3-.3 1.8-1.8 1.8-1.2 0-3.2.3-4.4.6-3.6 1-2.8-2 1-3.9 3.7-1.8 4.7-2 4.8-1zm-31.6 4.5c-.3 2.4-.7 4.9-.7 5.5-.1.7-.5 1.3-1 1.3-.4 0-.8.6-.8 1.3 0 .8-.6 1.4-1.3 1.4-1.9 0-1.4-8 .7-11.2 2.5-3.8 3.8-3.1 3.1 1.7zm-22.8 13c-.3.7-.5.2-.5-1.2s.2-1.9.5-1.3c.2.7.2 1.9 0 2.5zm7.3.3c0 .8-.4 1.5-1 1.5-.5 0-.7-.7-.4-1.5.4-.8.8-1.5 1-1.5.2 0 .4.7.4 1.5zm-362.5-57.9c-7 6.8-9 10.4-6.6 11.8 1.4.9 3.9-.4 4.4-2.2.3-1.3.7-1 1.7 1 1.3 2.7 4 3.9 4 1.8 0-.6.7-1 1.6-1 .8 0 1.3.4.9.9-1 1.7 3.4 3.4 5.1 2.1 1.1-1 1.8-.8 3.2 1 2 2.5 7.6 3.4 10.6 1.6 1.4-.8 2-.8 2.4.3.8 2.3 4.1 5.1 5.4 4.7 5.4-1.7 6.8-1.6 6.8.4 0 1.1.6 2 1.3 2.1 10.4.8 13.9 1.6 14.8 3.1.6 1 1.2.9 2.6-.6 1.3-1.3 1.4-1.7.3-1.2-.8.4-.3-.3 1.3-1.6 1.5-1.3 2.7-2.9 2.7-3.5 0-.6.7-1.4 1.6-1.7.8-.3 1.3-1 1-1.5-.3-.5.3-1.1 1.4-1.4 1.6-.4 1.9 0 1.8 1.8-.1 1.3-.6 2.1-1 1.9-.4-.3-.8.1-.8.9s-1 2.1-2.2 2.9c-1.6 1.1-2 2-1.4 4.1.7 3.1 3.2 3.6 4.1.8.3-1.1 1.2-2.2 2-2.5.8-.3 1.5-1.3 1.5-2.1 0-.9.4-1.4.8-1.1.4.3 1.6-1 2.6-2.8 1.4-2.6 2.4-3.3 4.6-3.2 2.1.1 2.6.4 1.8 1.3-.5.6-1.6.9-2.4.6-.8-.3-1.4.1-1.4.9s-.9 2.3-1.9 3.2c-2.8 2.5-4.6 7.5-3.3 8.8.6.6 4.2 1.2 8.1 1.5 7 .5 7.1.4 6.8-1.8-.4-2.3-4.8-4.4-6.2-3-.4.3-.5-.3-.3-1.4.3-1.7 1.1-2 5.3-2 4.4 0 5-.2 4.7-2-.2-1-1.1-2.5-2-3.2-1.5-1.2-1-1.3 3.1-1.1 3.9.3 4.7 0 4.7-1.4 0-1.9-1.6-3.2-4.5-3.5-1.1-.1-3.8-.5-6-.9s-5.4-.7-7.2-.7c-1.8 0-3.4-.6-3.7-1.2-.2-.7-2.4-1.3-4.8-1.4-6.7-.3-6.9-.4-6.4-1.8.3-.7.2-1.3-.2-1.4-.4 0-1.5-.2-2.6-.4-1-.2-3.9-.6-6.5-.8-2.5-.3-5.1-.7-5.6-.9-1.1-.3-9 7.1-9 8.4 0 .4-.4.8-.9.7-.5 0-1.3.6-1.8 1.5s-1.3 1.6-1.8 1.6c-1.7 0-1.1-1.9 1-3.7 1.1-1 2-2.4 2-3.2 0-.8.3-1.1.7-.8.8.8 4.2-4.5 3.6-5.6-.6-1.1-5.3-.9-5.3.3 0 2.1-2.2.8-3.3-1.9-1.1-2.9-5.6-4.9-7.9-3.5-.5.3-1.5-.1-2.1-.9-1.7-2.1-5.7-2.8-6.4-1.1-.3.8-1.1 1.4-1.9 1.4-.8 0-1.4.5-1.4 1.1 0 .5-.5.7-1.1.3-.6-.3-1.5 0-2 .7-.7 1.1-.9 1.1-.9.1 0-.7.6-1.5 1.3-1.8 2.3-.9 1.7-4.2-.9-4.7-1.9-.3-3.8 1-9.9 6.9zm22.5-1.2c0 .2-.8 1-1.7 1.7-1.6 1.3-1.7 1.2-.4-.4 1.3-1.6 2.1-2.1 2.1-1.3zm5.8 6.3c-1.4 3.3-4.3 6.4-5.2 5.6-.3-.4-.6-.2-.6.4 0 .6-.9 1.3-1.9 1.6-1.6.4-1.8.1-1.1-2.3 1-3.6 4-6.9 5.5-6.3.7.2 1.6 0 2-.6 1.4-2.3 2.4-1 1.3 1.6zm-26 .3c-.7 1-1.4 1.7-1.7 1.5-.4-.4 1.8-3.5 2.5-3.5.2 0-.1.9-.8 2zm9.2.3c0 .2-1.2 1.4-2.7 2.8l-2.8 2.4 2.4-2.8c2.3-2.5 3.1-3.2 3.1-2.4zm38 3.1c0 .2-.8 1-1.7 1.7-1.6 1.3-1.7 1.2-.4-.4 1.3-1.6 2.1-2.1 2.1-1.3zm7.5 2.6c-.3.5-1 1-1.6 1-.5 0-.9-.5-.9-1 0-.6.7-1 1.6-1 .8 0 1.2.4.9 1zm-14.5 5.3l-3.4 3.2 3-3.6c1.6-2 3.1-3.4 3.3-3.2.3.2-1 1.8-2.9 3.6zm18.6-1.8c-.8.8-1.7 1.5-1.9 1.5-.3 0-.7-.7-1.1-1.5-.4-1.1.2-1.5 2-1.5 2.3 0 2.4.2 1 1.5zm-5.8 2.1c3.2.9 2.5 4-.8 3.6-1.4-.2-3.9-.4-5.7-.5-2.9-.2-3-.3-1.6-2 1.7-1.8 4.2-2.1 8.1-1.1zm45.4.1c-2 .4-2.3 1-2 4 .2 2.3-.2 3.8-1 4.1-.6.2-1.2 1-1.2 1.7s-.7 1.5-1.5 1.9c-.8.3-1.5 1.2-1.5 2s-.7 1.9-1.5 2.4c-2.2 1.1-.8 4.2 1.9 4.3 6.3.3 9.8-.1 11.1-1.1.8-.7 1.5-.9 1.5-.5s1.7-1 3.7-3.2c2.1-2.1 4.5-3.6 5.5-3.5.9.2 3.1-.4 4.8-1.3 2.5-1.3 3.1-2.2 2.8-4.3-.2-2.3-.8-2.7-3.3-2.7s-3 .4-3.3 2.8c-.4 3.6-2.4 3-3.4-1.2-1.1-3.9-6.8-6.4-12.6-5.4zm7.3 7.4c.5 1.5.2 2.5-.9 3.1-.9.5-1.6 1.5-1.6 2.3 0 .7-.9 1.6-2 1.9-1.1.3-3 .9-4.2 1.2-2.1.6-2.1.5.5-2.5 1.5-1.8 2.7-3.7 2.7-4.2 0-.6.4-.8.9-.5.5.3 1.1-.3 1.4-1.4.7-2.6 2.4-2.5 3.2.1zm14.5 3.6c-1.9 2-2.8 3.3-2 2.8.8-.4.3.3-1.2 1.8-1.6 1.4-2.8 3-2.9 3.4 0 .4-.2 1.8-.3 3.1-.6 4.9 7 7.4 10 3.4.9-1.2 1.3-1.2 1.9-.2.6.9.4 1.1-.5.5-2.3-1.4-.5 1.7 1.9 3.3 2 1.4 2.2 1.4 2.8-.6.3-1.2.9-2.2 1.4-2.2.5 0 .9-.6.9-1.4 0-.7.7-1.9 1.5-2.6 1-.9 1.5-.9 1.5-.1 0 .6-.4 1.1-.8 1.1-.7 0-.8 2.8-.4 6.8.3 2 5.3 1 6.6-1.3.6-1.1 1.7-2.4 2.4-2.8.7-.5 1-1.2.7-1.8-.4-.5-.2-.9.3-.9s2.3-2.2 4-5c2.7-4.3 2.9-5.1 1.5-5.8-1.1-.6-2.2-.2-3.9 1.5-1.3 1.3-2.4 2.9-2.4 3.5 0 .6-.3.8-.7.4-.5-.4-.8-2.2-.8-3.9 0-3-.2-3.2-5-4-3.5-.6-5.1-.5-5.3.3-.5 1.3-10.8 12-11.5 12-1.2 0 .1-3.3 2.1-5.3 5.4-5.3 7.4-8.7 5.3-8.7-.5 0-1.5-.2-2.3-.5-.7-.2-2.9 1.2-4.8 3.2zm17 .6c0 .2-1 1.2-2.2 2.3l-2.3 1.9 1.9-2.3c1.8-2.1 2.6-2.7 2.6-1.9zm-5 6c0 .2-1 1.2-2.2 2.3l-2.3 1.9 1.9-2.3c1.8-2.1 2.6-2.7 2.6-1.9zm30.8 2.5c-1.8 2-4 4.8-4.9 6.2-1.9 3-4.8 3.9-4.5 1.3.1-1.3-.7-1.9-2.6-2.1-2.7-.3-2.8-.1-2.8 4 0 2.4.5 4.9 1.2 5.6 2 2 5.8 1.3 8.4-1.6 1.7-1.7 2.4-2.1 2-1-.7 2.4.3 4.8 2.1 4.8.8 0 1.1.5.8 1.1-.5.6 1 .9 4.4.8 2.8-.2 5.1-.6 5.1-1.1 0-1.7 1.7-.7 2.8 1.7 1.5 3.4 5.1 4.7 7.7 2.9 2.5-1.8 3.5-1.8 3.5 0 0 3.5 5.4 3 6.3-.5.6-2.3 2.7-1.7 2.7.7 0 .8.5 1.4 1.2 1.4.6 0 .9.3.5.6-.3.4.1 1.3 1 2.2 1.4 1.4 1.7 1.4 2.9-.3.8-1.1 1.2-2.5.9-3.2-.3-.7-.7-1.9-1-2.6-.4-.8.8-2 3-3 1.9-.9 3.5-2.3 3.5-3.2 0-.8.4-1.5.9-1.5 1.9 0-.3-4.3-3.2-6-4.6-2.8-16.1-2.1-14.2.9.2.4-1.9 3-4.7 5.6-3.5 3.3-5.3 4.4-5.6 3.5-.3-.7.5-2.2 1.8-3.2 1.2-1 1.9-1.8 1.5-1.8-.3 0 .8-1.4 2.5-3.1 1.7-1.7 2.9-3.6 2.7-4.2-.5-1.7-4.1-1.7-5.4 0-1.4 1.8-2.3 1.4-2.7-1.3-.2-1-1.5-2.7-3-3.8-2.6-2-2.9-2-5.5-.5-2.7 1.6-2.8 1.6-2.4-.1.3-1.1-.2-1.9-1.5-2.2-1.4-.4-3 .5-5.4 3zm12.5 5.9c-.9 2.4-6.8 7.8-8.6 7.9-1.4.2-1.6-.3-1.1-2 .4-1.1 1.3-2.5 2.1-2.9.7-.5 1-1.3.7-1.9-.4-.6-.3-.8.3-.5.6.4 1.3.1 1.6-.7.3-.7 1.7-1.4 3-1.4 1.8 0 2.4.5 2 1.5zm17 8.8c-4.3 5.2-5.5 6-2.1 1.4 1.3-1.7 2.7-3.7 3.3-4.5.5-.8 1.4-1.4 1.8-1.4.4 0-.9 2-3 4.5zm10.2-2.5c.3.5.2 1-.4 1-.5 0-1.8.3-2.8.7-1.6.6-1.6.5-.4-1 1.5-1.9 2.7-2.2 3.6-.7zm-25.5 1.4c0 .2-.8 1-1.7 1.7-1.6 1.3-1.7 1.2-.4-.4 1.3-1.6 2.1-2.1 2.1-1.3z"/></svg>